<?xml version="1.0" standalone="no"?>
<!DOCTYPE svg PUBLIC "-//W3C//DTD SVG 20010904//EN"
 "http://www.w3.org/TR/2001/REC-SVG-20010904/DTD/svg10.dtd">
<svg version="1.0" xmlns="http://www.w3.org/2000/svg"
 width="499.000000pt" height="640.000000pt" viewBox="0 0 499.000000 640.000000"
 preserveAspectRatio="xMidYMid meet">

<g transform="translate(0.000000,640.000000) scale(0.100000,-0.100000)"
fill="#000000" stroke="none">
<path d="M0 6390 c0 -5 5 -10 10 -10 6 0 10 5 10 10 0 6 -4 10 -10 10 -5 0
-10 -4 -10 -10z"/>
<path d="M126 6385 c7 -16 -19 -17 -44 -2 -27 17 -48 -36 -21 -53 13 -9 -9
-77 -26 -84 -8 -3 -15 -12 -15 -21 0 -8 -4 -15 -10 -15 -13 0 -14 -6016 0
-6025 6 -3 6 -15 0 -30 -5 -13 -9 -54 -9 -90 l1 -65 2402 0 c1322 0 2444 3
2494 6 l91 7 1 273 c0 181 -3 274 -10 274 -5 0 -10 5 -10 11 0 5 4 7 10 4 6
-4 9 169 9 497 0 277 -4 494 -8 484 -5 -12 -10 -15 -14 -9 -4 6 0 16 8 23 13
11 15 186 15 1461 0 977 -4 1458 -11 1476 -7 19 -7 29 0 31 6 2 11 10 11 18 0
9 -4 13 -9 10 -5 -3 -11 8 -13 25 -3 22 -1 29 9 25 8 -3 13 2 13 15 0 11 -4
17 -10 14 -6 -4 -10 8 -10 29 0 20 5 36 10 36 7 0 10 288 10 844 l0 843 -215
2 c-118 1 -215 -2 -215 -7 0 -4 6 -14 13 -21 10 -11 8 -12 -10 -6 -18 5 -22 3
-17 -9 3 -9 1 -16 -4 -16 -17 0 -19 34 -2 47 12 10 -99 12 -529 13 -479 0
-542 -2 -537 -15 3 -8 1 -15 -5 -15 -5 0 -12 7 -15 15 -5 13 -65 15 -455 15
-423 0 -448 -1 -442 -17 6 -17 5 -17 -13 -1 -19 16 -68 18 -677 18 -479 0
-657 -3 -657 -11 0 -9 -4 -9 -14 0 -17 15 -929 15 -957 0 -13 -6 -19 -6 -19 1
0 5 -22 10 -50 10 -40 0 -48 -3 -44 -15z m4483 -9 c7 -8 8 -17 3 -20 -6 -3
-12 3 -15 14 -6 24 -4 25 12 6z m-3094 -6 c3 -5 2 -10 -4 -10 -5 0 -13 5 -16
10 -3 6 -2 10 4 10 5 0 13 -4 16 -10z m2972 -15 c-4 -8 -11 -15 -17 -15 -6 0
-6 7 2 20 14 22 24 19 15 -5z m297 4 c17 14 57 -5 49 -24 -4 -12 -8 -13 -13
-5 -5 7 -13 9 -20 5 -9 -6 -11 -4 -6 4 5 8 3 12 -5 10 -37 -5 -58 2 -53 16 5
13 8 13 21 -1 10 -9 19 -11 27 -5z m-4434 -4 c0 -8 -4 -15 -10 -15 -5 0 -7 7
-4 15 4 8 8 15 10 15 2 0 4 -7 4 -15z m3367 -17 c-3 -7 -5 -2 -5 12 0 14 2 19
5 13 2 -7 2 -19 0 -25z m705 10 c-7 -7 -12 -8 -12 -2 0 14 12 26 19 19 2 -3
-1 -11 -7 -17z m267 10 c4 7 11 4 20 -10 11 -18 11 -20 -4 -15 -9 4 -13 3 -10
-2 3 -5 1 -12 -5 -16 -6 -3 -13 1 -16 9 -4 11 -14 14 -29 10 -20 -5 -23 -3
-18 14 4 18 8 19 30 9 18 -8 26 -8 32 1z m-289 -18 c0 -17 -2 -19 -14 -8 -14
13 -12 28 5 28 5 0 9 -9 9 -20z m-4110 -17 c0 -10 -4 -25 -10 -33 -6 -10 -9
-5 -8 18 1 33 18 47 18 15z m4300 13 c0 -3 -4 -8 -10 -11 -5 -3 -10 -1 -10 4
0 6 5 11 10 11 6 0 10 -2 10 -4z m175 -6 c3 -6 -1 -7 -9 -4 -18 7 -21 14 -7
14 6 0 13 -4 16 -10z m-2605 -20 c-8 -5 -19 -10 -25 -10 -5 0 -3 5 5 10 8 5
20 10 25 10 6 0 3 -5 -5 -10z m47 4 c-3 -3 -12 -4 -19 -1 -8 3 -5 6 6 6 11 1
17 -2 13 -5z m2663 -15 c0 -5 -4 -9 -8 -9 -5 0 -9 7 -9 15 0 8 4 12 9 9 4 -3
8 -9 8 -15z m-370 1 c0 -5 -2 -10 -4 -10 -3 0 -8 5 -11 10 -3 6 -1 10 4 10 6
0 11 -4 11 -10z m-1319 -17 c13 -16 12 -17 -3 -4 -17 13 -22 21 -14 21 2 0 10
-8 17 -17z m-684 -9 c-3 -3 -12 -4 -19 -1 -8 3 -5 6 6 6 11 1 17 -2 13 -5z
m-2050 -36 c-3 -8 -6 -5 -6 6 -1 11 2 17 5 13 3 -3 4 -12 1 -19z m4250 -10
c-3 -8 -6 -5 -6 6 -1 11 2 17 5 13 3 -3 4 -12 1 -19z m-607 -3 c11 -13 10 -14
-4 -9 -9 3 -16 10 -16 15 0 13 6 11 20 -6z m-562 -29 c14 5 14 4 2 -4 -19 -14
-30 -6 -29 21 l2 22 4 -22 c3 -15 9 -20 21 -17z m1200 20 c-7 -8 -15 -12 -17
-11 -5 6 10 25 20 25 5 0 4 -6 -3 -14z m-4517 -19 c-10 -9 -11 -8 -5 6 3 10 9
15 12 12 3 -3 0 -11 -7 -18z m3226 -9 c-3 -7 -5 -2 -5 12 0 14 2 19 5 13 2 -7
2 -19 0 -25z m1363 12 c0 -5 -4 -10 -10 -10 -5 0 -10 5 -10 10 0 6 5 10 10 10
6 0 10 -4 10 -10z m-263 -32 c-3 -8 -6 -5 -6 6 -1 11 2 17 5 13 3 -3 4 -12 1
-19z m253 2 c0 -5 -2 -10 -4 -10 -3 0 -8 5 -11 10 -3 6 -1 10 4 10 6 0 11 -4
11 -10z m-405 -18 c-3 -3 -11 0 -18 7 -9 10 -8 11 6 5 10 -3 15 -9 12 -12z
m450 -12 c3 -5 1 -10 -4 -10 -6 0 -11 5 -11 10 0 6 2 10 4 10 3 0 8 -4 11 -10z
m-305 -40 c0 -5 -5 -10 -11 -10 -5 0 -7 5 -4 10 3 6 8 10 11 10 2 0 4 -4 4
-10z m-4439 -53 c-10 -9 -11 -8 -5 6 3 10 9 15 12 12 3 -3 0 -11 -7 -18z
m4434 -47 c3 -5 1 -10 -4 -10 -6 0 -11 5 -11 10 0 6 2 10 4 10 3 0 8 -4 11
-10z m-718 -42 c-3 -7 -5 -2 -5 12 0 14 2 19 5 13 2 -7 2 -19 0 -25z m70 10
c-3 -8 -6 -5 -6 6 -1 11 2 17 5 13 3 -3 4 -12 1 -19z m603 -22 c0 -3 -4 -8
-10 -11 -5 -3 -10 -1 -10 4 0 6 5 11 10 11 6 0 10 -2 10 -4z m-4399 -108 c11
-21 11 -22 -4 -9 -10 7 -17 17 -17 22 0 15 9 10 21 -13z m4439 18 c0 -3 -4 -8
-10 -11 -5 -3 -10 -1 -10 4 0 6 5 11 10 11 6 0 10 -2 10 -4z m375 -56 c3 -5
-1 -10 -10 -10 -9 0 -13 5 -10 10 3 6 8 10 10 10 2 0 7 -4 10 -10z m-3108 -22
c-3 -8 -6 -5 -6 6 -1 11 2 17 5 13 3 -3 4 -12 1 -19z m2293 -38 c0 -5 -2 -10
-4 -10 -3 0 -8 5 -11 10 -3 6 -1 10 4 10 6 0 11 -4 11 -10z m97 -37 c0 -9 -4
-10 -14 -2 -7 6 -13 12 -13 14 0 1 6 2 13 2 8 0 14 -6 14 -14z m790 -5 c-3 -8
-6 -5 -6 6 -1 11 2 17 5 13 3 -3 4 -12 1 -19z m-714 -11 c10 -4 17 -16 16 -29
0 -13 -3 -17 -6 -10 -2 6 -8 10 -13 7 -5 -3 -11 4 -15 15 -3 11 -11 20 -16 20
-6 0 -7 5 -3 11 4 7 9 7 13 2 3 -5 14 -12 24 -16z m-2236 -29 c-3 -7 -5 -2 -5
12 0 14 2 19 5 13 2 -7 2 -19 0 -25z m2317 8 c15 -13 26 -33 26 -44 0 -17 -6
-21 -28 -19 -27 2 -28 4 -21 35 7 33 -2 49 -23 36 -7 -4 -8 -3 -4 4 11 17 22
15 50 -12z m-3754 4 c0 -5 -5 -10 -11 -10 -5 0 -7 5 -4 10 3 6 8 10 11 10 2 0
4 -4 4 -10z m3670 -46 c0 -3 -8 0 -19 5 -10 6 -20 9 -22 6 -2 -2 -5 8 -5 21
l-2 25 24 -26 c13 -14 24 -28 24 -31z m-126 21 c3 -8 1 -15 -4 -15 -6 0 -10 7
-10 15 0 8 2 15 4 15 2 0 6 -7 10 -15z m46 0 c5 3 10 -1 10 -9 0 -10 -9 -16
-22 -16 -12 0 -18 3 -15 7 4 3 1 13 -6 22 -10 14 -10 14 5 3 9 -8 22 -11 28
-7z m-2193 -17 c-3 -8 -6 -5 -6 6 -1 11 2 17 5 13 3 -3 4 -12 1 -19z m2323 8
c0 -3 -4 -8 -10 -11 -5 -3 -10 -1 -10 4 0 6 5 11 10 11 6 0 10 -2 10 -4z m83
-57 c-8 -28 -12 -23 -11 12 1 17 4 25 8 18 4 -6 5 -20 3 -30z m-3196 9 c-3 -8
-6 -5 -6 6 -1 11 2 17 5 13 3 -3 4 -12 1 -19z m3723 7 c0 -8 -4 -15 -10 -15
-5 0 -7 7 -4 15 4 8 8 15 10 15 2 0 4 -7 4 -15z m-3653 -17 c-3 -8 -6 -5 -6 6
-1 11 2 17 5 13 3 -3 4 -12 1 -19z m40 -10 c-3 -8 -6 -5 -6 6 -1 11 2 17 5 13
3 -3 4 -12 1 -19z m1206 -5 c8 3 18 3 22 -1 4 -4 16 -7 28 -8 12 0 40 -3 62
-8 90 -17 90 -17 74 -28 -11 -7 -9 -9 9 -5 12 3 22 1 22 -4 0 -4 7 -5 17 -2
11 4 14 3 9 -6 -6 -8 -1 -10 17 -6 25 7 66 -8 79 -29 5 -7 8 -6 8 4 1 8 5 4
11 -9 5 -14 15 -21 23 -18 9 4 15 -1 15 -11 2 -53 7 -61 27 -43 5 4 17 -1 28
-12 16 -17 17 -19 3 -14 -11 4 -17 1 -17 -8 0 -8 3 -14 8 -14 24 4 41 -4 47
-21 4 -11 10 -18 15 -15 5 3 11 1 15 -5 3 -5 -1 -10 -9 -10 -8 0 -14 -8 -13
-19 0 -11 4 -18 8 -15 15 9 15 -22 0 -34 -9 -8 -10 -11 -3 -7 6 3 12 1 12 -4
0 -6 3 -10 8 -10 19 3 23 -2 12 -16 -17 -21 -5 -31 16 -14 16 13 16 12 3 -9
-8 -12 -20 -20 -27 -17 -9 3 -10 0 -2 -15 6 -11 6 -21 1 -24 -5 -3 -5 -21 -1
-41 4 -19 4 -35 0 -35 -5 0 -2 -12 5 -27 11 -21 12 -29 2 -35 -9 -6 -9 -8 0
-8 7 0 12 -3 12 -7 -3 -20 2 -26 11 -13 7 12 10 8 10 -15 0 -16 7 -42 14 -57
13 -25 13 -29 -2 -38 -11 -6 -12 -9 -4 -10 21 0 50 -32 34 -38 -6 -2 -12 -10
-12 -17 0 -7 -8 -16 -17 -20 -17 -7 -16 -8 2 -15 11 -5 14 -9 6 -9 -11 -1 -11
-4 0 -18 11 -15 11 -16 -1 -5 -20 18 -30 15 -30 -9 0 -11 5 -17 10 -14 17 10
11 -7 -7 -20 -13 -9 -13 -14 -3 -20 9 -6 11 -4 5 6 -7 12 -6 12 6 0 11 -10 11
-15 2 -18 -7 -3 -13 -11 -13 -19 0 -9 -5 -12 -11 -9 -6 4 -5 -2 2 -14 8 -12
16 -16 20 -10 4 6 9 4 13 -7 4 -10 3 -20 -1 -23 -4 -3 -9 -13 -9 -21 -1 -8 -3
-19 -4 -25 -6 -24 1 -45 14 -45 9 0 14 -9 13 -20 -1 -22 -17 -28 -17 -6 0 8
-7 16 -14 19 -11 4 -13 1 -9 -10 4 -11 2 -14 -5 -9 -8 5 -12 -2 -12 -23 0 -18
6 -31 15 -33 12 -2 11 -6 -6 -16 -11 -8 -18 -9 -14 -3 3 6 1 11 -4 11 -6 0
-11 -3 -11 -7 0 -14 17 -35 26 -33 5 1 10 -3 12 -8 2 -6 -6 -8 -17 -5 -12 3
-21 1 -21 -5 0 -12 25 -34 36 -30 5 2 10 -1 11 -7 1 -5 -5 -9 -13 -9 -9 1 -14
-8 -15 -25 -1 -26 -1 -26 -8 -2 l-6 23 -15 -28 c-8 -16 -19 -32 -25 -36 -5 -4
0 -8 13 -8 12 0 22 5 22 12 0 6 3 8 7 4 5 -4 -1 -14 -12 -22 -17 -13 -18 -16
-5 -24 12 -8 12 -10 -3 -16 -9 -3 -14 -10 -11 -16 3 -5 -2 -15 -11 -22 -16
-12 -16 -13 0 -30 16 -16 16 -19 2 -33 -14 -14 -14 -18 3 -36 16 -17 17 -21 4
-34 -18 -19 -18 -32 1 -39 26 -10 17 -23 -30 -45 -25 -12 -43 -24 -40 -27 3
-3 11 0 17 6 7 7 15 12 19 12 9 0 6 -27 -4 -36 -4 -4 0 -18 9 -31 8 -13 13
-30 10 -36 -2 -7 -5 -4 -5 6 -1 9 -8 17 -16 17 -8 0 -15 7 -15 15 0 11 -8 9
-34 -8 -31 -20 -41 -45 -13 -32 7 3 2 -2 -10 -11 -17 -12 -23 -27 -24 -58 -1
-22 -3 -33 -6 -23 -2 9 -8 17 -12 17 -14 0 -41 -36 -34 -44 4 -4 -1 -4 -12 0
-16 5 -18 4 -8 -6 9 -10 7 -17 -8 -33 -13 -14 -15 -23 -8 -28 26 -16 -9 -16
-43 1 -27 13 -35 14 -31 4 3 -8 12 -14 20 -14 18 0 13 -32 -6 -38 -10 -3 -12
0 -8 11 3 9 -1 21 -10 28 -13 11 -17 10 -28 -4 -7 -9 -17 -17 -24 -17 -6 0
-11 -5 -11 -11 0 -5 6 -7 13 -3 8 5 8 3 -2 -9 -7 -9 -16 -15 -20 -13 -4 3 -13
1 -21 -5 -11 -6 -11 -9 -2 -9 10 0 10 -4 0 -20 -7 -11 -21 -20 -31 -20 -10 0
-15 4 -12 10 3 6 -1 7 -10 3 -13 -5 -14 -7 -3 -14 10 -7 9 -9 -5 -9 -10 0 -20
-7 -23 -15 -4 -8 -14 -15 -24 -15 -12 0 -17 -7 -15 -25 2 -14 -1 -23 -6 -19
-5 3 -9 1 -9 -5 0 -5 8 -15 18 -20 9 -6 12 -11 6 -11 -5 0 -19 6 -29 14 -11 8
-26 11 -34 8 -9 -3 -12 -1 -8 5 8 13 -12 22 -31 15 -8 -3 -3 -12 15 -28 16
-13 23 -24 18 -24 -6 0 -16 5 -23 12 -7 7 -12 8 -12 2 0 -5 -4 -3 -9 5 -7 10
-13 6 -27 -17 -10 -17 -22 -28 -26 -25 -5 2 -1 11 8 17 13 10 14 15 5 20 -14
9 -43 -23 -36 -41 2 -6 -4 -18 -14 -27 -16 -14 -19 -14 -41 1 -13 9 -20 11
-16 5 4 -7 1 -12 -9 -12 -10 0 -15 7 -13 18 2 11 -3 16 -15 14 -9 -2 -20 4
-23 13 -3 8 -13 15 -22 15 -13 0 -12 -3 4 -16 18 -15 18 -15 -3 -9 -19 5 -22
3 -16 -11 4 -11 3 -15 -5 -11 -6 4 -14 22 -18 40 -4 17 -9 26 -11 19 -4 -10
-8 -10 -19 -1 -9 8 -14 8 -14 1 0 -6 8 -16 18 -21 16 -10 16 -10 -1 -11 -10 0
-22 11 -27 25 -5 14 -14 25 -20 25 -5 0 -9 3 -9 8 1 4 1 14 0 22 -1 13 -2 13
-12 0 -8 -12 -9 -10 -4 8 4 13 1 29 -5 37 -17 21 -1 19 23 -2 19 -17 20 -17
10 1 -11 21 -6 56 8 56 5 0 12 -13 15 -29 6 -27 34 -53 34 -31 0 6 -5 10 -12
10 -7 0 -8 3 -3 9 18 15 84 1 90 -20 4 -11 11 -16 17 -13 8 5 9 1 4 -12 -6
-15 -5 -17 5 -6 7 6 21 12 31 12 10 0 18 7 18 15 0 13 18 20 43 16 4 0 7 4 7
10 0 6 -9 9 -20 6 -11 -3 -18 -2 -15 2 2 5 -2 16 -9 27 -8 10 -12 24 -9 31 4
9 0 11 -11 7 -10 -4 -16 -1 -16 9 0 14 -3 14 -27 2 -18 -10 -31 -11 -37 -5
-14 14 -28 12 -21 -2 4 -7 0 -5 -9 5 -14 18 -15 18 -28 -2 -15 -25 -38 -28
-38 -4 0 14 -2 14 -21 -3 -11 -10 -18 -26 -16 -36 3 -10 0 -21 -5 -25 -7 -3
-8 -1 -4 5 5 8 -2 12 -18 12 -14 0 -34 10 -46 22 -20 22 -28 44 -11 34 4 -3 6
6 3 20 -3 19 -7 22 -17 14 -9 -8 -15 -8 -20 0 -3 5 -1 10 4 10 6 0 11 8 10 18
0 12 -2 13 -6 3 -4 -10 -7 -11 -13 -1 -14 22 23 52 54 44 14 -3 26 -11 26 -16
0 -7 5 -6 14 1 11 9 13 6 10 -16 -2 -16 -1 -22 2 -15 3 6 10 10 14 7 5 -3 11
-1 15 5 3 5 1 10 -6 10 -9 0 -10 3 -2 11 7 7 25 6 62 -5 31 -9 53 -11 56 -5 4
5 11 7 16 4 5 -4 9 -2 9 3 0 13 133 11 142 -2 5 -8 8 -7 8 2 0 15 106 17 115
2 3 -5 21 -9 40 -8 24 1 32 5 26 12 -6 7 -1 12 17 13 15 0 28 6 30 12 2 6 8 9
13 5 12 -7 51 21 41 31 -4 4 2 5 12 1 16 -5 17 -4 7 8 -10 11 -8 15 6 19 15 4
14 5 -4 6 -12 0 -25 -3 -28 -9 -10 -15 -25 -12 -19 4 4 11 0 13 -15 9 -12 -3
-21 -1 -21 4 0 5 -7 10 -15 10 -8 0 -15 -4 -15 -9 0 -4 -7 -8 -15 -8 -18 0
-19 11 -2 29 9 11 9 13 0 7 -7 -4 -13 -3 -13 2 0 5 -15 8 -32 6 -18 -2 -40 -1
-48 2 -31 14 -46 17 -87 16 -24 -1 -43 3 -43 8 0 5 -8 7 -19 5 -14 -3 -18 1
-14 16 4 12 -1 25 -12 33 -17 12 -16 14 8 20 14 3 42 22 61 42 30 31 34 41 29
68 -3 17 -12 40 -20 51 -13 19 -13 19 -13 -3 0 -12 5 -22 10 -22 16 0 12 -17
-12 -55 -28 -43 -35 -44 -35 -5 0 16 4 27 9 24 4 -3 8 -1 8 5 0 5 -8 10 -17 9
-29 -1 -91 10 -104 18 -7 4 -9 3 -5 -4 7 -11 -11 -26 -32 -27 -7 0 -18 -11
-25 -25 -14 -28 -60 -36 -79 -13 -8 11 -13 11 -19 2 -4 -7 6 -25 27 -45 21
-19 31 -35 24 -39 -6 -3 -7 -11 -4 -17 5 -7 2 -8 -5 -3 -16 9 -61 -14 -61 -31
0 -7 -10 -16 -22 -20 -13 -4 -27 -12 -31 -18 -6 -8 -10 -7 -14 2 -3 8 -9 10
-16 3 -23 -18 -88 -51 -82 -41 3 5 2 10 -2 10 -5 0 -17 33 -27 73 -9 39 -24
86 -31 102 -7 17 -15 41 -17 55 -1 14 -6 27 -9 30 -3 3 -13 34 -22 70 -14 60
-17 240 -3 306 2 11 -2 46 -9 78 -11 47 -11 65 -1 99 7 23 11 47 9 54 -2 6 1
14 6 18 6 3 11 15 11 26 0 10 6 19 13 19 8 0 7 4 -3 10 -8 5 -10 10 -4 10 14
0 36 72 24 80 -12 7 9 150 22 150 5 0 7 4 3 9 -3 5 -1 12 5 16 6 4 8 11 5 16
-4 5 -1 9 6 9 7 0 9 3 6 7 -4 3 -2 12 4 19 6 8 9 21 5 29 -3 8 -2 15 2 15 4 0
9 12 10 26 1 14 5 31 9 37 4 6 8 21 9 33 1 12 23 56 48 97 25 42 46 82 46 91
0 8 9 18 20 21 11 3 20 12 21 18 2 32 224 180 286 191 12 3 26 7 31 10 19 11
166 15 179 5 10 -9 13 -7 13 7 0 17 1 17 14 -1 7 -10 20 -16 29 -12z m1812 -7
c22 9 46 -9 35 -26 -7 -11 -11 -11 -24 -1 -8 7 -20 10 -26 6 -5 -3 -10 1 -10
9 0 10 -6 13 -17 9 -13 -5 -13 -3 3 13 17 18 19 18 22 2 2 -10 9 -15 17 -12z
m39 19 c-4 -8 -11 -12 -16 -9 -6 4 -5 10 3 15 19 12 19 11 13 -6z m-3117 -17
c-3 -8 -6 -5 -6 6 -1 11 2 17 5 13 3 -3 4 -12 1 -19z m533 -5 c0 -21 -3 -24
-9 -14 -5 8 -7 20 -4 28 8 21 13 15 13 -14z m2075 17 c3 -5 1 -10 -4 -10 -6 0
-11 5 -11 10 0 6 2 10 4 10 3 0 8 -4 11 -10z m395 -15 c-10 -12 -10 -15 0 -15
8 0 11 -3 7 -6 -3 -3 -11 -3 -17 1 -8 5 -8 11 1 21 6 8 14 14 16 14 3 0 0 -7
-7 -15z m-3063 -17 c-3 -8 -6 -5 -6 6 -1 11 2 17 5 13 3 -3 4 -12 1 -19z
m3265 14 c-9 -6 -4 -14 18 -30 16 -13 30 -32 30 -43 0 -11 5 -17 10 -14 6 3
10 -2 11 -12 0 -16 1 -16 9 2 7 17 9 15 9 -12 1 -18 6 -33 11 -33 6 0 10 -7
10 -15 0 -18 -16 -20 -23 -2 -3 7 -6 7 -6 1 -1 -6 9 -19 21 -30 17 -15 20 -16
16 -3 -5 12 0 16 20 15 25 -1 27 -5 29 -48 2 -27 -2 -48 -7 -48 -6 0 -10 -4
-10 -10 0 -20 25 -4 31 20 l7 25 1 -27 c0 -15 5 -29 10 -32 5 -4 7 4 4 16 -3
18 -2 20 6 7 5 -8 11 -27 13 -42 4 -29 18 -49 18 -26 0 11 2 11 10 -1 13 -20
13 -33 0 -25 -5 3 -10 2 -10 -4 0 -5 6 -12 13 -15 6 -3 0 -4 -15 -1 -26 5 -47
-10 -33 -23 4 -4 10 -1 12 6 3 6 9 9 14 6 19 -11 -11 -34 -31 -24 -13 7 -20 6
-24 -3 -3 -9 -8 -8 -18 4 -8 9 -25 15 -40 13 -15 -1 -27 0 -27 4 1 4 1 18 0
31 -1 18 -4 21 -14 13 -13 -11 -47 6 -47 24 0 4 5 3 11 -3 12 -12 61 -5 53 8
-3 5 -9 7 -14 4 -4 -3 -11 2 -14 11 -5 13 -9 14 -21 4 -12 -10 -16 -9 -21 4
-4 10 -12 15 -20 12 -14 -5 -38 17 -28 27 3 3 12 3 19 1 9 -4 12 0 9 14 -4 12
0 19 10 19 9 0 16 -4 16 -9 0 -5 5 -6 11 -2 16 10 -5 27 -35 27 -21 0 -24 4
-24 28 1 16 6 29 11 29 6 0 7 3 4 6 -4 4 -13 1 -21 -5 -12 -10 -16 -8 -21 9
-8 24 2 41 13 24 4 -6 23 -10 42 -10 33 1 36 3 34 28 -1 15 -9 34 -17 43 -8 8
-17 20 -20 27 -2 7 -8 10 -12 6 -4 -4 2 -17 14 -29 24 -26 28 -51 6 -43 -8 4
-13 10 -10 14 3 5 0 10 -5 12 -16 5 -30 76 -16 82 19 8 32 6 18 -2z m-3215
-34 c-3 -8 -6 -5 -6 6 -1 11 2 17 5 13 3 -3 4 -12 1 -19z m60 0 c-3 -8 -6 -5
-6 6 -1 11 2 17 5 13 3 -3 4 -12 1 -19z m173 13 c0 -5 -7 -12 -16 -15 -14 -5
-15 -4 -4 9 14 17 20 19 20 6z m3460 -5 c0 -3 -4 -8 -10 -11 -5 -3 -10 -1 -10
4 0 6 5 11 10 11 6 0 10 -2 10 -4z m-3723 -38 c-3 -7 -5 -2 -5 12 0 14 2 19 5
13 2 -7 2 -19 0 -25z m2710 -5 c-3 -10 -5 -4 -5 12 0 17 2 24 5 18 2 -7 2 -21
0 -30z m461 15 c21 7 31 6 42 -6 11 -13 12 -16 1 -20 -11 -4 -11 -6 0 -13 11
-7 10 -9 -3 -9 -9 0 -20 5 -23 10 -4 6 -11 8 -16 5 -5 -4 -9 -1 -9 4 0 6 -6
11 -12 11 -7 0 -24 10 -38 21 l-25 21 28 -17 c22 -12 35 -14 55 -7z m-2983
-43 c9 -52 -1 -42 -14 14 -5 24 -6 39 -1 35 4 -5 11 -27 15 -49z m2432 23 c-3
-8 -6 -5 -6 6 -1 11 2 17 5 13 3 -3 4 -12 1 -19z m-2470 -20 c-3 -7 -5 -2 -5
12 0 14 2 19 5 13 2 -7 2 -19 0 -25z m264 -11 c-9 -9 -10 -5 -7 13 6 36 8 37
13 16 3 -10 0 -23 -6 -29z m-177 8 c-4 -8 -11 -12 -17 -8 -8 5 -7 8 1 11 7 2
9 9 6 14 -4 7 -2 8 4 4 6 -4 9 -13 6 -21z m2876 16 c0 -6 -4 -13 -10 -16 -5
-3 -10 1 -10 9 0 9 5 16 10 16 6 0 10 -4 10 -9z m-2836 -45 c-3 -15 -8 -25
-11 -23 -2 3 -1 17 3 31 3 15 8 25 11 23 2 -3 1 -17 -3 -31z m2553 2 c-3 -8
-6 -5 -6 6 -1 11 2 17 5 13 3 -3 4 -12 1 -19z m341 -14 c-3 -14 -5 -12 -10 9
-3 19 -2 25 4 19 6 -6 8 -18 6 -28z m-3071 -6 c-3 -7 -5 -2 -5 12 0 14 2 19 5
13 2 -7 2 -19 0 -25z m2330 -10 c-3 -8 -6 -5 -6 6 -1 11 2 17 5 13 3 -3 4 -12
1 -19z m160 -25 c-3 -10 -5 -2 -5 17 0 19 2 27 5 18 2 -10 2 -26 0 -35z m30
10 c-3 -10 -5 -4 -5 12 0 17 2 24 5 18 2 -7 2 -21 0 -30z m-2307 12 c0 -8 -2
-15 -4 -15 -2 0 -6 7 -10 15 -3 8 -1 15 4 15 6 0 10 -7 10 -15z m3387 -15 c-1
-11 -8 -22 -16 -25 -22 -9 -26 4 -6 19 11 8 15 18 10 26 -5 8 -4 11 3 6 6 -3
10 -15 9 -26z m-1217 0 c0 -5 -4 -10 -10 -10 -5 0 -10 5 -10 10 0 6 5 10 10
10 6 0 10 -4 10 -10z m213 -5 c-3 -9 -8 -14 -10 -11 -3 3 -2 9 2 15 9 16 15
13 8 -4z m482 5 c-3 -5 -11 -10 -16 -10 -6 0 -7 5 -4 10 3 6 11 10 16 10 6 0
7 -4 4 -10z m-3398 -22 c-3 -8 -6 -5 -6 6 -1 11 2 17 5 13 3 -3 4 -12 1 -19z
m263 -23 c0 -5 -5 -3 -10 5 -5 8 -10 20 -10 25 0 6 5 3 10 -5 5 -8 10 -19 10
-25z m223 22 c3 -8 -1 -14 -9 -14 -8 0 -14 6 -14 14 0 7 4 13 9 13 5 0 11 -6
14 -13z m2950 -16 c13 -26 13 -30 0 -35 -11 -4 -13 -2 -9 9 5 13 -5 20 -26 16
-13 -2 -9 27 5 32 6 3 13 6 14 6 1 1 8 -12 16 -28z m-3356 -13 c-3 -7 -5 -2
-5 12 0 14 2 19 5 13 2 -7 2 -19 0 -25z m241 7 c-3 -3 -9 2 -12 12 -6 14 -5
15 5 6 7 -7 10 -15 7 -18z m2306 9 c9 -24 2 -26 -12 -4 -7 11 -8 20 -3 20 5 0
12 -7 15 -16z m1022 -11 c-10 -10 -19 5 -10 18 6 11 8 11 12 0 2 -7 1 -15 -2
-18z m-706 2 c0 -2 -6 -5 -13 -8 -8 -3 -14 1 -14 8 0 7 6 11 14 8 7 -3 13 -6
13 -8z m-153 -27 c-3 -7 -5 -2 -5 12 0 14 2 19 5 13 2 -7 2 -19 0 -25z m-2403
-4 c3 -8 2 -12 -4 -9 -6 3 -10 10 -10 16 0 14 7 11 14 -7z m3303 -6 c-3 -8 -6
-5 -6 6 -1 11 2 17 5 13 3 -3 4 -12 1 -19z m-3710 -10 c-3 -8 -6 -5 -6 6 -1
11 2 17 5 13 3 -3 4 -12 1 -19z m193 12 c0 -5 -5 -10 -11 -10 -5 0 -7 5 -4 10
3 6 8 10 11 10 2 0 4 -4 4 -10z m77 -22 c-3 -7 -5 -2 -5 12 0 14 2 19 5 13 2
-7 2 -19 0 -25z m-317 12 c0 -5 -5 -10 -11 -10 -5 0 -7 5 -4 10 3 6 8 10 11
10 2 0 4 -4 4 -10z m512 -29 c2 -22 0 -37 -4 -35 -8 5 -11 74 -4 74 2 0 6 -18
8 -39z m2477 25 c9 -10 8 -15 -2 -19 -8 -3 -13 3 -13 14 0 23 0 23 15 5z
m-113 -7 c3 -6 1 -15 -5 -20 -6 -5 -9 -6 -6 -3 3 4 0 13 -6 21 -8 9 -8 13 -1
13 6 0 14 -5 18 -11z m-2479 -29 c-6 -11 -15 -20 -19 -20 -4 0 -5 -8 -1 -17 4
-14 3 -15 -6 -7 -12 11 -5 44 10 44 5 0 9 7 9 16 0 8 4 12 10 9 6 -4 5 -13 -3
-25z m-144 3 c-3 -7 -9 -10 -14 -7 -14 8 -11 21 5 21 8 0 12 -6 9 -14z m2537
7 c0 -5 -5 -10 -11 -10 -5 0 -7 5 -4 10 3 6 8 10 11 10 2 0 4 -4 4 -10z m57
-12 c-3 -8 -6 -5 -6 6 -1 11 2 17 5 13 3 -3 4 -12 1 -19z m-2835 -24 c-8 -14
-9 -13 -9 10 0 18 3 24 9 18 7 -7 7 -16 0 -28z m2795 4 c-3 -7 -5 -2 -5 12 0
14 2 19 5 13 2 -7 2 -19 0 -25z m-2338 -5 c9 -18 9 -22 -2 -18 -7 3 -13 15
-14 26 -2 24 0 23 16 -8z m2269 -2 c4 -28 -13 -20 -21 9 -3 14 -1 20 6 17 7
-2 14 -14 15 -26z m-2473 -6 c0 -14 -3 -25 -7 -25 -10 0 -10 34 -1 43 3 4 7 7
7 7 1 0 1 -11 1 -25z m2344 -13 c0 -24 -1 -25 -9 -7 -12 28 -12 47 0 40 6 -3
10 -18 9 -33z m218 -9 c-3 -10 -5 -2 -5 17 0 19 2 27 5 18 2 -10 2 -26 0 -35z
m-2587 22 c0 -8 -4 -15 -10 -15 -5 0 -7 7 -4 15 4 8 8 15 10 15 2 0 4 -7 4
-15z m-89 -41 c-5 -16 -10 -21 -10 -12 -1 18 10 51 15 45 2 -1 -1 -16 -5 -33z
m2696 14 c-3 -8 -6 -5 -6 6 -1 11 2 17 5 13 3 -3 4 -12 1 -19z m-2420 -10 c-3
-8 -6 -5 -6 6 -1 11 2 17 5 13 3 -3 4 -12 1 -19z m2348 12 c3 -5 -1 -10 -9
-10 -9 0 -16 5 -16 10 0 6 4 10 9 10 6 0 13 -4 16 -10z m-2421 -16 c3 -7 -2
-11 -12 -10 -9 2 -17 7 -19 13 -5 14 25 12 31 -3z m36 -24 c12 -23 12 -24 -3
-11 -10 7 -17 20 -17 29 0 18 3 16 20 -18z m-453 -17 c-3 -10 -5 -4 -5 12 0
17 2 24 5 18 2 -7 2 -21 0 -30z m296 22 c-3 -9 -8 -14 -10 -11 -3 3 -2 9 2 15
9 16 15 13 8 -4z m37 6 c0 -6 -4 -13 -10 -16 -5 -3 -10 1 -10 9 0 9 5 16 10
16 6 0 10 -4 10 -9z m46 -58 c-2 -3 -7 5 -11 16 -3 12 -10 21 -15 21 -5 0 -7
7 -3 16 4 12 9 8 20 -16 7 -18 11 -35 9 -37z m2432 42 c-3 -3 -9 2 -12 12 -6
14 -5 15 5 6 7 -7 10 -15 7 -18z m-2391 -27 c-3 -7 -5 -2 -5 12 0 14 2 19 5
13 2 -7 2 -19 0 -25z m3453 1 c0 -11 5 -17 10 -14 6 3 10 0 11 -7 0 -10 2 -10
6 0 2 6 9 12 14 12 5 0 4 -9 -3 -20 -9 -14 -14 -16 -20 -7 -5 9 -10 9 -20 -1
-19 -19 -30 -14 -18 7 13 25 13 44 0 36 -11 -7 -14 8 -4 18 11 11 24 -3 24
-24z m-1030 11 c0 -5 -5 -10 -11 -10 -5 0 -7 5 -4 10 3 6 8 10 11 10 2 0 4 -4
4 -10z m47 -12 c-3 -8 -6 -5 -6 6 -1 11 2 17 5 13 3 -3 4 -12 1 -19z m-2567 2
c0 -5 -2 -10 -4 -10 -3 0 -8 5 -11 10 -3 6 -1 10 4 10 6 0 11 -4 11 -10z
m2740 -5 c0 -8 -2 -15 -4 -15 -2 0 -6 7 -10 15 -3 8 -1 15 4 15 6 0 10 -7 10
-15z m643 -11 c-7 -19 -10 -18 -16 5 -3 13 -1 18 9 14 7 -2 10 -11 7 -19z
m-1483 6 c0 -5 -2 -10 -4 -10 -3 0 -8 5 -11 10 -3 6 -1 10 4 10 6 0 11 -4 11
-10z m1530 -2 c0 -4 -4 -8 -9 -8 -6 0 -12 4 -15 8 -3 5 1 9 9 9 8 0 15 -4 15
-9z m54 -9 c13 -20 14 -20 19 -2 4 16 5 16 6 -2 1 -11 5 -26 10 -34 8 -12 12
-12 25 -2 12 10 16 10 16 2 0 -7 5 -9 10 -6 6 3 10 -1 10 -9 0 -9 -6 -13 -14
-10 -7 3 -16 -2 -19 -10 -4 -9 -3 -16 2 -16 4 0 7 -13 6 -30 -1 -22 3 -30 15
-30 10 0 20 -9 23 -21 5 -17 3 -18 -11 -7 -9 7 -14 8 -9 3 4 -4 0 -19 -8 -32
-11 -17 -13 -28 -6 -41 9 -15 10 -14 11 7 0 24 0 24 14 5 11 -14 18 -16 26 -8
9 9 9 14 -1 19 -8 5 -10 4 -5 -3 4 -7 2 -12 -3 -12 -12 0 -15 23 -5 33 4 3 17
-1 30 -9 13 -9 28 -13 34 -9 5 3 10 2 10 -4 0 -5 -5 -11 -12 -13 -8 -3 -7 -11
5 -28 19 -27 22 -45 8 -35 -5 3 -12 1 -16 -5 -3 -5 -11 -10 -16 -10 -6 0 -7 5
-4 10 3 6 1 10 -5 10 -8 0 -10 9 -5 27 5 23 4 25 -9 14 -9 -8 -16 -21 -16 -30
0 -10 -7 -26 -15 -37 -13 -18 -14 -18 -8 4 4 15 1 22 -7 20 -7 -2 -15 3 -18
11 -3 9 0 11 8 6 7 -4 4 4 -5 19 -10 14 -21 26 -25 26 -5 0 -6 9 -3 20 3 11
12 20 19 20 8 0 14 5 14 11 0 5 -5 7 -12 3 -8 -5 -9 3 -5 29 3 21 1 39 -5 43
-5 3 -8 17 -5 30 3 16 0 24 -9 24 -8 0 -14 5 -14 10 0 6 -4 10 -9 10 -4 0 -6
-11 -3 -25 2 -14 8 -23 12 -20 4 3 10 -8 12 -23 3 -23 0 -28 -17 -29 -11 -1
-14 1 -7 4 17 7 15 23 -4 23 -10 0 -14 6 -10 15 3 8 2 15 -3 15 -5 0 -7 18 -6
39 2 29 -1 38 -11 34 -8 -3 -14 -8 -14 -12 0 -4 -8 -7 -19 -8 -17 -1 -17 0 3
23 26 29 31 30 50 3z m-860 -1 c-3 -4 -9 -8 -15 -8 -5 0 -9 4 -9 8 0 5 7 9 15
9 8 0 12 -4 9 -9z m180 -2 c-3 -7 2 -20 10 -29 16 -16 12 -29 -8 -21 -13 5
-15 64 -1 64 2 0 2 -6 -1 -14z m-2897 -26 c-7 -17 -13 -26 -15 -21 -3 10 15
51 22 51 3 0 -1 -14 -7 -30z m3715 -19 c-4 -10 -1 -12 9 -6 12 8 12 6 1 -8
-16 -19 -8 -39 13 -30 11 4 13 1 9 -10 -5 -13 -9 -14 -25 -4 -10 6 -19 15 -19
19 0 5 -4 8 -10 8 -5 0 -7 -7 -4 -15 4 -9 0 -15 -10 -15 -23 0 -20 22 7 50 12
14 21 26 20 27 -2 2 -3 11 -2 21 0 14 2 14 8 -3 5 -11 6 -26 3 -34z m-3582 29
c0 -5 -2 -10 -4 -10 -3 0 -8 5 -11 10 -3 6 -1 10 4 10 6 0 11 -4 11 -10z
m2450 -10 c0 -5 -4 -10 -10 -10 -5 0 -10 5 -10 10 0 6 5 10 10 10 6 0 10 -4
10 -10z m101 -75 c5 22 6 17 5 -17 -1 -29 -5 -43 -10 -37 -12 11 -24 111 -16
130 3 8 7 -13 10 -46 5 -48 7 -54 11 -30z m46 43 c1 -38 0 -40 -7 -15 -7 23
-5 57 4 57 1 0 2 -19 3 -42z m-2786 9 c-10 -9 -11 -8 -5 6 3 10 9 15 12 12 3
-3 0 -11 -7 -18z m156 1 c-3 -8 -6 -5 -6 6 -1 11 2 17 5 13 3 -3 4 -12 1 -19z
m1892 -27 l-1 -36 -7 31 c-4 17 -11 36 -15 42 -5 8 -2 10 8 6 11 -4 16 -18 15
-43z m811 35 c0 -3 -4 -8 -10 -11 -5 -3 -10 -1 -10 4 0 6 5 11 10 11 6 0 10
-2 10 -4z m746 -9 c14 17 15 17 5 -2 -5 -11 -16 -29 -25 -40 -15 -19 -15 -19
-9 4 5 18 3 22 -6 16 -10 -6 -10 -2 0 16 12 21 14 22 17 6 4 -18 4 -18 18 0z
m-915 -40 c-13 -13 -15 1 -4 30 7 17 8 17 11 -1 2 -10 -1 -23 -7 -29z m656 11
c-3 -7 -5 -2 -5 12 0 14 2 19 5 13 2 -7 2 -19 0 -25z m-3410 0 c-3 -8 -6 -5
-6 6 -1 11 2 17 5 13 3 -3 4 -12 1 -19z m206 -40 c-9 -20 -10 -17 -9 20 1 35
2 39 10 23 6 -13 5 -29 -1 -43z m52 53 c3 -5 1 -12 -5 -16 -5 -3 -10 1 -10 9
0 18 6 21 15 7z m95 -1 c0 -5 -2 -10 -4 -10 -3 0 -8 5 -11 10 -3 6 -1 10 4 10
6 0 11 -4 11 -10z m-307 -15 c-3 -9 -8 -14 -10 -11 -3 3 -2 9 2 15 9 16 15 13
8 -4z m54 -17 c-3 -7 -5 -2 -5 12 0 14 2 19 5 13 2 -7 2 -19 0 -25z m3197 17
c3 -8 1 -15 -4 -15 -6 0 -10 7 -10 15 0 8 2 15 4 15 2 0 6 -7 10 -15z m187 -8
c-10 -9 -11 -8 -5 6 3 10 9 15 12 12 3 -3 0 -11 -7 -18z m-3304 -9 c2 -17 0
-19 -7 -8 -5 8 -6 18 -4 22 8 12 10 10 11 -14z m3503 -9 c0 -5 -4 -9 -8 -9 -5
0 -9 7 -9 15 0 8 4 12 9 9 4 -3 8 -9 8 -15z m-3636 -15 c3 -8 2 -12 -4 -9 -6
3 -10 10 -10 16 0 14 7 11 14 -7z m3856 3 c0 -8 -6 -14 -14 -14 -8 0 -12 6 -9
14 3 7 9 13 14 13 5 0 9 -6 9 -13z m-1057 -10 c3 -8 -1 -14 -9 -14 -15 0 -18
9 -7 20 9 9 10 9 16 -6z m422 3 c3 -5 1 -10 -4 -10 -6 0 -11 5 -11 10 0 6 2
10 4 10 3 0 8 -4 11 -10z m-3085 -35 c0 -19 -4 -35 -8 -35 -4 0 -6 16 -4 35 2
19 6 35 8 35 2 0 4 -16 4 -35z m2947 22 c-10 -6 -21 -26 -26 -42 -7 -21 -10
-24 -10 -10 -1 24 25 65 41 65 7 0 4 -6 -5 -13z m42 -3 c4 3 8 -1 8 -8 0 -8
-6 -12 -14 -9 -7 3 -13 13 -12 22 0 10 2 11 6 3 2 -6 8 -10 12 -8z m791 6 c0
-5 -5 -10 -11 -10 -5 0 -7 5 -4 10 3 6 8 10 11 10 2 0 4 -4 4 -10z m-1820 -10
c0 -5 -2 -10 -4 -10 -3 0 -8 5 -11 10 -3 6 -1 10 4 10 6 0 11 -4 11 -10z m814
-6 c3 -8 2 -12 -4 -9 -6 3 -10 10 -10 16 0 14 7 11 14 -7z m307 -17 c-10 -9
-11 -8 -5 6 3 10 9 15 12 12 3 -3 0 -11 -7 -18z m469 -3 c0 -20 -7 -17 -20 6
-9 16 -8 18 5 14 8 -4 15 -12 15 -20z m119 -24 c-16 -11 -25 11 -14 38 6 15 9
14 18 -6 8 -18 8 -25 -4 -32z m171 40 c0 -5 -4 -10 -10 -10 -5 0 -10 5 -10 10
0 6 5 10 10 10 6 0 10 -4 10 -10z m-3812 -30 c-7 -10 -14 -17 -17 -15 -4 4 18
35 25 35 2 0 -1 -9 -8 -20z m2669 -12 c-3 -7 -5 -2 -5 12 0 14 2 19 5 13 2 -7
2 -19 0 -25z m160 10 c-3 -8 -6 -5 -6 6 -1 11 2 17 5 13 3 -3 4 -12 1 -19z
m914 0 c9 -18 9 -21 -1 -11 -7 6 -18 10 -24 9 -6 -2 -8 -1 -3 1 4 3 5 9 1 14
-3 5 -1 9 5 9 6 0 16 -10 22 -22z m-883 -19 c-3 -8 -7 -3 -11 10 -4 17 -3 21
5 13 5 -5 8 -16 6 -23z m349 9 c-3 -8 -6 -5 -6 6 -1 11 2 17 5 13 3 -3 4 -12
1 -19z m-240 -25 c-3 -10 -5 -4 -5 12 0 17 2 24 5 18 2 -7 2 -21 0 -30z
m-3030 -15 c-3 -7 -5 -2 -5 12 0 14 2 19 5 13 2 -7 2 -19 0 -25z m2666 19 c2
10 3 1 2 -20 -3 -42 -15 -64 -15 -27 0 13 -8 33 -17 44 -18 21 -18 21 4 3 21
-18 21 -18 26 0z m-2603 -1 c0 -3 -4 -8 -10 -11 -5 -3 -10 -1 -10 4 0 6 5 11
10 11 6 0 10 -2 10 -4z m2674 -29 c4 -19 3 -26 -4 -22 -5 3 -10 18 -10 32 0
32 5 28 14 -10z m113 11 c-3 -8 -6 -5 -6 6 -1 11 2 17 5 13 3 -3 4 -12 1 -19z
m939 -30 c-9 -71 -17 -74 -15 -5 1 31 6 57 12 57 5 0 6 -21 3 -52z m-990 20
c-10 -6 -16 -22 -16 -44 0 -32 -2 -34 -15 -20 -17 17 -20 30 -5 21 6 -3 10 1
10 10 0 26 20 56 32 49 7 -4 5 -10 -6 -16z m384 7 c10 -12 10 -15 -4 -15 -9 0
-16 7 -16 15 0 8 2 15 4 15 2 0 9 -7 16 -15z m-3039 -36 l-10 -24 0 26 c-1 14
2 29 6 33 12 12 14 -9 4 -35z m2486 19 c-3 -8 -6 -5 -6 6 -1 11 2 17 5 13 3
-3 4 -12 1 -19z m-2584 -13 c-7 -21 -13 -19 -13 6 0 11 4 18 10 14 5 -3 7 -12
3 -20z m2854 3 c-3 -8 -6 -5 -6 6 -1 11 2 17 5 13 3 -3 4 -12 1 -19z m53 12
c0 -5 -5 -10 -11 -10 -5 0 -7 5 -4 10 3 6 8 10 11 10 2 0 4 -4 4 -10z m317 -5
c0 -8 -4 -15 -9 -15 -4 0 -8 7 -8 15 0 8 4 15 8 15 5 0 9 -7 9 -15z m-3287
-17 c10 -21 10 -21 -3 -6 -8 10 -18 14 -22 10 -5 -4 -5 -1 -1 6 10 17 14 15
26 -10z m117 -20 c-3 -7 -5 -2 -5 12 0 14 2 19 5 13 2 -7 2 -19 0 -25z m2983
18 c0 -8 -4 -17 -8 -20 -4 -2 -8 4 -8 15 0 10 4 19 8 19 4 0 8 -6 8 -14z m74
-25 c-6 -6 -24 19 -24 34 1 6 7 1 15 -9 8 -11 12 -22 9 -25z m26 35 c0 -3 -4
-8 -10 -11 -5 -3 -10 -1 -10 4 0 6 5 11 10 11 6 0 10 -2 10 -4z m677 -18 c-3
-8 -6 -5 -6 6 -1 11 2 17 5 13 3 -3 4 -12 1 -19z m-3686 -33 l-8 -30 -5 27
c-3 17 -1 25 5 21 7 -4 8 1 3 13 -5 13 -4 16 3 9 6 -6 7 -22 2 -40z m2516 23
c-3 -8 -6 -5 -6 6 -1 11 2 17 5 13 3 -3 4 -12 1 -19z m145 -15 c-3 -16 -7 -22
-10 -15 -4 13 4 42 11 42 2 0 2 -12 -1 -27z m38 17 c0 -5 -5 -10 -11 -10 -5 0
-7 5 -4 10 3 6 8 10 11 10 2 0 4 -4 4 -10z m140 -31 c0 -11 -4 -17 -10 -14 -5
3 -10 13 -10 21 0 8 5 14 10 14 6 0 10 -9 10 -21z m666 6 c-6 -18 -2 -19 25
-4 17 8 23 7 34 -8 8 -11 10 -22 5 -27 -6 -6 -5 -16 3 -25 10 -14 10 -14 -4
-4 -9 7 -20 9 -24 5 -5 -4 -6 0 -3 8 4 11 0 16 -16 15 -11 0 -26 -3 -32 -7 -7
-4 -18 0 -25 9 -8 9 -9 14 -3 10 6 -3 16 5 22 18 12 27 28 35 18 10z m-804
-47 c2 -20 0 -34 -4 -32 -4 3 -8 24 -7 47 1 47 6 41 11 -15z m-2732 32 c0 -5
-4 -10 -10 -10 -5 0 -10 5 -10 10 0 6 5 10 10 10 6 0 10 -4 10 -10z m2895 0
c3 -5 1 -10 -4 -10 -6 0 -11 5 -11 10 0 6 2 10 4 10 3 0 8 -4 11 -10z m106
-17 c-12 -20 -14 -14 -5 12 4 9 9 14 11 11 3 -2 0 -13 -6 -23z m-3164 -15 c-3
-8 -6 -5 -6 6 -1 11 2 17 5 13 3 -3 4 -12 1 -19z m2952 -7 c0 -16 -3 -20 -6
-11 -3 8 -10 20 -14 26 -5 7 -3 11 6 11 10 0 15 -10 14 -26z m435 14 c-4 -8
-8 -15 -10 -15 -2 0 -4 7 -4 15 0 8 4 15 10 15 5 0 7 -7 4 -15z m140 0 c-4 -8
-8 -15 -10 -15 -2 0 -4 7 -4 15 0 8 4 15 10 15 5 0 7 -7 4 -15z m-3432 -34 c8
12 9 12 5 -1 -2 -8 -14 -16 -26 -16 -16 -1 -19 2 -12 9 6 6 12 20 12 32 1 12
4 8 6 -9 4 -23 7 -26 15 -15z m3168 29 c0 -5 -10 -10 -22 -9 -22 0 -22 1 -3 9
11 5 21 9 23 9 1 1 2 -3 2 -9z m550 0 c0 -5 -4 -10 -10 -10 -5 0 -10 5 -10 10
0 6 5 10 10 10 6 0 10 -4 10 -10z m-4125 -9 c3 -5 1 -12 -5 -16 -5 -3 -10 1
-10 9 0 18 6 21 15 7z m172 -13 c-3 -8 -6 -5 -6 6 -1 11 2 17 5 13 3 -3 4 -12
1 -19z m116 -18 c6 -31 5 -33 -7 -17 -8 10 -12 27 -9 38 7 25 9 22 16 -21z
m3057 -14 c0 -18 -17 8 -24 34 l-7 25 15 -25 c9 -14 15 -29 16 -34z m453 34
c3 -11 1 -18 -4 -14 -5 3 -9 12 -9 20 0 20 7 17 13 -6z m-3676 -12 c-3 -8 -6
-5 -6 6 -1 11 2 17 5 13 3 -3 4 -12 1 -19z m3260 -10 c-3 -8 -6 -5 -6 6 -1 11
2 17 5 13 3 -3 4 -12 1 -19z m82 -63 c-1 -60 -6 -50 -12 23 -2 32 -1 48 4 40
5 -7 8 -35 8 -63z m134 58 c-3 -7 -6 -13 -8 -13 -2 0 -5 6 -8 13 -3 8 1 14 8
14 7 0 11 -6 8 -14z m67 7 c0 -5 -2 -10 -4 -10 -3 0 -8 5 -11 10 -3 6 -1 10 4
10 6 0 11 -4 11 -10z m386 -7 c-1 -12 6 -17 18 -16 13 1 15 -2 8 -9 -12 -12
-83 -17 -76 -6 2 3 -2 9 -8 11 -7 3 1 6 17 7 22 2 25 4 10 8 l-20 5 20 8 c30
11 33 11 31 -8z m74 -11 c0 -15 -2 -15 -10 -2 -13 20 -13 33 0 25 6 -3 10 -14
10 -23z m-4470 -13 c0 -6 -4 -7 -10 -4 -5 3 -10 11 -10 16 0 6 5 7 10 4 6 -3
10 -11 10 -16z m433 6 c4 -8 2 -17 -3 -20 -6 -4 -10 3 -10 14 0 25 6 27 13 6z
m4054 -7 c-3 -8 -6 -5 -6 6 -1 11 2 17 5 13 3 -3 4 -12 1 -19z m-3724 -8 c-3
-11 -7 -20 -9 -20 -2 0 -4 9 -4 20 0 11 4 20 9 20 5 0 7 -9 4 -20z m-43 0 c0
-5 -4 -10 -9 -10 -6 0 -13 5 -16 10 -3 6 1 10 9 10 9 0 16 -4 16 -10z m3266
-5 c14 -13 14 -15 1 -15 -9 0 -17 -6 -20 -12 -2 -7 -4 -1 -3 14 1 32 2 33 22
13z m-3189 -32 c-3 -10 -5 -4 -5 12 0 17 2 24 5 18 2 -7 2 -21 0 -30z m2829
-1 c-4 -3 -11 0 -16 8 -15 24 -11 33 6 15 9 -9 13 -19 10 -23z m461 16 c-3 -8
-6 -5 -6 6 -1 11 2 17 5 13 3 -3 4 -12 1 -19z m-150 -10 c-3 -8 -6 -5 -6 6 -1
11 2 17 5 13 3 -3 4 -12 1 -19z m-3440 -20 c-3 -8 -6 -5 -6 6 -1 11 2 17 5 13
3 -3 4 -12 1 -19z m3916 -8 c3 -11 1 -20 -4 -20 -5 0 -9 9 -9 20 0 11 2 20 4
20 2 0 6 -9 9 -20z m-3642 -17 c-8 -15 -10 -15 -11 -2 0 17 10 32 18 25 2 -3
-1 -13 -7 -23z m3249 23 c0 -2 -7 -6 -15 -10 -8 -3 -15 -1 -15 4 0 6 7 10 15
10 8 0 15 -2 15 -4z m-3573 -38 c-3 -7 -5 -2 -5 12 0 14 2 19 5 13 2 -7 2 -19
0 -25z m248 23 c3 -5 2 -12 -3 -15 -5 -3 -9 1 -9 9 0 17 3 19 12 6z m-965 -5
c0 -3 -4 -8 -10 -11 -5 -3 -10 -1 -10 4 0 6 5 11 10 11 6 0 10 -2 10 -4z
m4110 -6 c0 -5 -4 -10 -10 -10 -5 0 -10 5 -10 10 0 6 5 10 10 10 6 0 10 -4 10
-10z m47 -22 c-3 -8 -6 -5 -6 6 -1 11 2 17 5 13 3 -3 4 -12 1 -19z m-3787 -3
c0 -8 -4 -15 -10 -15 -5 0 -7 7 -4 15 4 8 8 15 10 15 2 0 4 -7 4 -15z m637
-17 c-3 -7 -5 -2 -5 12 0 14 2 19 5 13 2 -7 2 -19 0 -25z m3170 10 c-3 -8 -6
-5 -6 6 -1 11 2 17 5 13 3 -3 4 -12 1 -19z m198 12 c3 -5 1 -10 -4 -10 -6 0
-11 5 -11 10 0 6 2 10 4 10 3 0 8 -4 11 -10z m315 -11 c0 -6 -4 -7 -10 -4 -5
3 -10 11 -10 16 0 6 5 7 10 4 6 -3 10 -11 10 -16z m-453 -56 c-2 -16 -4 -5 -4
22 0 28 2 40 4 28 2 -13 2 -35 0 -50z m99 41 c-4 -9 -9 -15 -11 -12 -3 3 -3
13 1 22 4 9 9 15 11 12 3 -3 3 -13 -1 -22z m-3716 6 c0 -5 -4 -10 -9 -10 -6 0
-13 5 -16 10 -3 6 1 10 9 10 9 0 16 -4 16 -10z m50 6 c0 -3 -4 -8 -10 -11 -5
-3 -10 -1 -10 4 0 6 5 11 10 11 6 0 10 -2 10 -4z m3630 -22 c0 -8 -4 -12 -10
-9 -5 3 -10 13 -10 21 0 8 5 12 10 9 6 -3 10 -13 10 -21z m-3347 9 c-7 -2 -13
-11 -13 -19 0 -8 -5 -14 -11 -14 -5 0 -8 -4 -5 -9 4 -5 -1 -8 -9 -7 -21 3 -31
16 -12 16 9 0 21 9 27 20 6 11 16 20 23 19 9 0 9 -2 0 -6z m81 -8 c-4 -8 -8
-15 -10 -15 -2 0 -4 7 -4 15 0 8 4 15 10 15 5 0 7 -7 4 -15z m2946 -6 c0 -11
-4 -18 -10 -14 -5 3 -7 12 -3 20 7 21 13 19 13 -6z m227 -1 c-3 -8 -6 -5 -6 6
-1 11 2 17 5 13 3 -3 4 -12 1 -19z m-4003 -4 c3 -8 2 -12 -4 -9 -6 3 -10 10
-10 16 0 14 7 11 14 -7z m2733 -6 c-3 -8 -6 -5 -6 6 -1 11 2 17 5 13 3 -3 4
-12 1 -19z m-2407 -30 c0 -23 -3 -38 -6 -35 -10 9 -11 77 -1 77 4 0 7 -19 7
-42z m176 8 c-1 -19 -5 -38 -9 -42 -4 -4 -5 8 -3 27 3 19 5 37 5 42 1 4 3 7 5
7 2 0 3 -15 2 -34z m81 12 c-3 -8 -6 -5 -6 6 -1 11 2 17 5 13 3 -3 4 -12 1
-19z m3227 0 c-15 -51 -25 -70 -31 -64 -3 3 2 24 12 46 20 44 31 53 19 18z
m46 -13 c0 -19 -3 -35 -7 -35 -5 0 -8 16 -8 35 0 19 3 35 8 35 4 0 7 -16 7
-35z m-3770 11 c0 -2 -7 -7 -16 -10 -8 -3 -12 -2 -9 4 6 10 25 14 25 6z m3907
-28 c-3 -7 -5 -2 -5 12 0 14 2 19 5 13 2 -7 2 -19 0 -25z m-3170 0 c-3 -8 -6
-5 -6 6 -1 11 2 17 5 13 3 -3 4 -12 1 -19z m-403 -11 c15 -15 15 -17 2 -17 -9
0 -16 7 -16 15 0 9 -6 12 -15 9 -8 -4 -15 -2 -15 4 0 15 25 9 44 -11z m3495
-20 c1 -5 -3 -5 -9 -2 -5 3 -10 16 -9 28 0 21 1 21 9 2 5 -11 9 -24 9 -28z
m-3864 15 c-3 -3 -11 0 -18 7 -9 10 -8 11 6 5 10 -3 15 -9 12 -12z m679 3 c-4
-8 -8 -15 -10 -15 -2 0 -4 7 -4 15 0 8 4 15 10 15 5 0 7 -7 4 -15z m3386 1 c0
-8 -7 -16 -15 -20 -12 -4 -13 -2 -2 14 14 24 17 25 17 6z m-3353 -18 c-3 -8
-6 -5 -6 6 -1 11 2 17 5 13 3 -3 4 -12 1 -19z m-100 -20 c-3 -7 -5 -2 -5 12 0
14 2 19 5 13 2 -7 2 -19 0 -25z m-570 -20 c0 -24 -1 -37 -4 -30 -3 6 -8 10
-11 8 -4 -2 -8 7 -8 20 -1 13 3 24 10 24 6 0 4 5 -4 10 -13 9 -13 10 0 10 12
0 16 -11 17 -42z m3733 32 c0 -5 -4 -10 -10 -10 -5 0 -10 5 -10 10 0 6 5 10
10 10 6 0 10 -4 10 -10z m206 -38 c-10 -11 -16 -12 -16 -4 0 7 5 12 11 12 6 0
8 9 4 23 -5 20 -5 20 6 3 9 -14 8 -21 -5 -34z m-126 13 c4 3 6 -4 3 -15 -7
-26 -19 -33 -19 -12 -1 9 -4 26 -8 37 -7 18 -6 18 4 2 6 -9 15 -15 20 -12z
m50 21 c0 -3 -4 -8 -10 -11 -5 -3 -10 -1 -10 4 0 6 5 11 10 11 6 0 10 -2 10
-4z m-3604 -31 c-9 -7 -17 -27 -17 -46 -1 -19 -3 -26 -6 -16 -3 11 -2 34 1 53
5 25 11 32 23 27 14 -6 14 -7 -1 -18z m3480 10 c-17 -13 -17 -16 -2 -46 19
-38 19 -39 5 -39 -5 0 -7 5 -4 10 3 6 2 10 -3 10 -18 0 -22 54 -4 68 8 6 18
12 21 12 3 0 -2 -7 -13 -15z m-3189 -17 c-3 -8 -6 -5 -6 6 -1 11 2 17 5 13 3
-3 4 -12 1 -19z m-167 -3 c0 -8 -4 -15 -10 -15 -5 0 -7 7 -4 15 4 8 8 15 10
15 2 0 4 -7 4 -15z m3477 -17 c-3 -7 -5 -2 -5 12 0 14 2 19 5 13 2 -7 2 -19 0
-25z m-3950 0 c-3 -8 -6 -5 -6 6 -1 11 2 17 5 13 3 -3 4 -12 1 -19z m510 16
c-3 -3 -12 -4 -19 -1 -8 3 -5 6 6 6 11 1 17 -2 13 -5z m3798 -4 c3 -5 1 -10
-4 -10 -6 0 -11 5 -11 10 0 6 2 10 4 10 3 0 8 -4 11 -10z m-3902 -79 c-15 -14
-16 -14 -5 0 6 8 9 26 6 40 l-5 24 11 -24 c9 -20 7 -28 -7 -40z m3481 -48 c-8
-88 -8 -88 -14 -33 -3 30 -2 57 2 60 4 3 6 12 6 20 -2 30 2 53 8 47 4 -3 3
-46 -2 -94z m-3331 72 c-3 -9 -8 -14 -10 -11 -3 3 -2 9 2 15 9 16 15 13 8 -4z
m197 5 c0 -5 -2 -10 -4 -10 -3 0 -8 5 -11 10 -3 6 -1 10 4 10 6 0 11 -4 11
-10z m-742 -31 c-3 -8 -7 -3 -11 10 -4 17 -3 21 5 13 5 -5 8 -16 6 -23z m709
-1 c-3 -8 -6 -5 -6 6 -1 11 2 17 5 13 3 -3 4 -12 1 -19z m3220 -20 c-3 -8 -6
-5 -6 6 -1 11 2 17 5 13 3 -3 4 -12 1 -19z m247 6 c4 -10 2 -13 -6 -8 -8 5 -9
2 -5 -10 4 -9 3 -15 -2 -11 -11 6 -10 45 0 45 4 0 10 -7 13 -16z m-4017 -16
c-3 -8 -6 -5 -6 6 -1 11 2 17 5 13 3 -3 4 -12 1 -19z m568 -6 c-3 -3 -11 0
-18 7 -9 10 -8 11 6 5 10 -3 15 -9 12 -12z m57 -24 c-6 -6 -7 0 -4 19 5 21 7
23 10 9 2 -10 0 -22 -6 -28z m65 10 c-3 -8 -6 -5 -6 6 -1 11 2 17 5 13 3 -3 4
-12 1 -19z m3260 0 c-3 -8 -6 -5 -6 6 -1 11 2 17 5 13 3 -3 4 -12 1 -19z
m-4044 -38 c-3 -3 -8 1 -11 9 -3 10 -6 10 -12 1 -4 -7 -7 -1 -7 16 l0 27 18
-24 c10 -13 15 -26 12 -29z m24 28 c-3 -8 -6 -5 -6 6 -1 11 2 17 5 13 3 -3 4
-12 1 -19z m570 0 c-3 -8 -6 -5 -6 6 -1 11 2 17 5 13 3 -3 4 -12 1 -19z m96 7
c-3 -9 -8 -14 -10 -11 -3 3 -2 9 2 15 9 16 15 13 8 -4z m3174 -7 c-3 -8 -6 -5
-6 6 -1 11 2 17 5 13 3 -3 4 -12 1 -19z m70 -10 c-3 -8 -6 -5 -6 6 -1 11 2 17
5 13 3 -3 4 -12 1 -19z m-3989 -6 c23 -21 9 -22 -18 -1 -14 11 -18 18 -10 17
8 -2 21 -9 28 -16z m865 3 c-3 -9 -8 -14 -10 -11 -3 3 -2 9 2 15 9 16 15 13 8
-4z m1867 -5 c0 -5 -2 -10 -4 -10 -3 0 -8 5 -11 10 -3 6 -1 10 4 10 6 0 11 -4
11 -10z m1647 -22 c-3 -7 -5 -2 -5 12 0 14 2 19 5 13 2 -7 2 -19 0 -25z
m-3972 12 c3 -5 1 -10 -4 -10 -6 0 -11 5 -11 10 0 6 2 10 4 10 3 0 8 -4 11
-10z m235 0 c0 -5 -5 -10 -11 -10 -5 0 -7 5 -4 10 3 6 8 10 11 10 2 0 4 -4 4
-10z m160 6 c0 -2 -7 -6 -15 -10 -8 -3 -15 -1 -15 4 0 6 7 10 15 10 8 0 15 -2
15 -4z m3117 -18 c-3 -8 -6 -5 -6 6 -1 11 2 17 5 13 3 -3 4 -12 1 -19z m-3160
-10 c-3 -8 -6 -5 -6 6 -1 11 2 17 5 13 3 -3 4 -12 1 -19z m-710 6 c-3 -3 -12
-4 -19 -1 -8 3 -5 6 6 6 11 1 17 -2 13 -5z m688 -69 c3 -27 2 -46 -2 -42 -4 4
-8 20 -9 35 -1 15 -5 41 -9 57 -4 22 -4 26 4 14 5 -8 12 -37 16 -64z m105 65
c0 -5 -5 -10 -11 -10 -5 0 -7 5 -4 10 3 6 8 10 11 10 2 0 4 -4 4 -10z m25 1
c3 -5 1 -12 -5 -16 -5 -3 -10 1 -10 9 0 18 6 21 15 7z m2090 -8 c-18 -44 -18
-46 -7 -39 15 9 15 4 1 -28 -7 -14 -16 -23 -20 -20 -5 3 -6 -2 -3 -11 5 -11 0
-18 -15 -22 -15 -4 -21 -13 -21 -32 0 -33 -42 -76 -64 -68 -9 4 -16 14 -16 23
0 16 2 16 20 -1 17 -16 20 -16 26 -2 10 26 0 72 -16 73 -8 1 -18 2 -22 4 -5 1
-11 3 -15 4 -17 3 -56 50 -45 54 7 2 12 12 12 23 0 10 5 19 10 19 10 0 14 -15
10 -35 -1 -5 2 -6 7 -2 4 5 8 13 8 19 0 6 9 12 20 14 11 2 21 8 23 13 2 6 8
11 13 11 6 0 7 -6 3 -12 -5 -7 7 -3 26 9 37 23 74 27 65 6z m-2397 -18 c-3 -3
-9 2 -12 12 -6 14 -5 15 5 6 7 -7 10 -15 7 -18z m-497 -8 c-10 -9 -11 -8 -5 6
3 10 9 15 12 12 3 -3 0 -11 -7 -18z m789 -28 c4 7 10 9 13 4 3 -5 -3 -17 -14
-26 -18 -16 -19 -16 -19 11 -1 23 -2 24 -11 10 -11 -20 -29 -24 -29 -7 0 5 4
8 9 5 4 -3 14 7 22 22 l13 27 4 -29 c2 -20 6 -25 12 -17z m1806 17 c1 -7 -4
-13 -12 -13 -9 0 -11 4 -4 12 5 7 8 15 5 18 -3 4 -2 5 2 2 4 -3 8 -11 9 -19z
m-2249 -8 c-3 -8 -6 -5 -6 6 -1 11 2 17 5 13 3 -3 4 -12 1 -19z m280 0 c-3 -8
-6 -5 -6 6 -1 11 2 17 5 13 3 -3 4 -12 1 -19z m-720 6 c-3 -3 -12 -4 -19 -1
-8 3 -5 6 6 6 11 1 17 -2 13 -5z m63 -2 c0 -4 -9 -13 -20 -19 -15 -10 -21 -10
-26 0 -4 6 -4 9 1 5 4 -4 14 -1 22 7 16 17 23 19 23 7z m2693 -12 c3 -11 1
-18 -4 -14 -5 3 -9 12 -9 20 0 20 7 17 13 -6z m1414 -2 c-3 -8 -6 -5 -6 6 -1
11 2 17 5 13 3 -3 4 -12 1 -19z m-3237 -8 c0 -5 -5 -10 -11 -10 -5 0 -7 5 -4
10 3 6 8 10 11 10 2 0 4 -4 4 -10z m-930 -10 c0 -5 -2 -10 -4 -10 -3 0 -8 5
-11 10 -3 6 -1 10 4 10 6 0 11 -4 11 -10z m520 0 c0 -5 -8 -10 -17 -10 -15 0
-16 2 -3 10 19 12 20 12 20 0z m3347 -12 c-3 -8 -6 -5 -6 6 -1 11 2 17 5 13 3
-3 4 -12 1 -19z m-3241 -15 c-10 -10 -19 5 -10 18 6 11 8 11 12 0 2 -7 1 -15
-2 -18z m179 17 c3 -5 1 -10 -4 -10 -6 0 -11 5 -11 10 0 6 2 10 4 10 3 0 8 -4
11 -10z m3472 -12 c-3 -8 -6 -5 -6 6 -1 11 2 17 5 13 3 -3 4 -12 1 -19z
m-4227 -33 c5 -21 5 -34 1 -29 -10 10 -24 80 -15 72 3 -4 10 -23 14 -43z m395
25 c3 -5 -1 -10 -10 -10 -9 0 -13 5 -10 10 3 6 8 10 10 10 2 0 7 -4 10 -10z
m267 -12 c-7 -7 -12 -8 -12 -2 0 14 12 26 19 19 2 -3 -1 -11 -7 -17z m213 -26
c-3 -3 -5 0 -5 7 0 7 -4 10 -9 7 -5 -4 -7 4 -3 16 l5 22 9 -24 c5 -12 6 -25 3
-28z m3055 8 c-5 -22 -8 -27 -9 -13 -1 21 9 56 14 51 2 -2 0 -19 -5 -38z
m-3659 -25 c5 4 9 -1 9 -10 0 -9 -4 -14 -9 -11 -5 4 -12 0 -14 -6 -3 -7 -5 10
-5 37 1 34 2 40 5 17 2 -18 9 -30 14 -27z m226 23 c-3 -8 -6 -5 -6 6 -1 11 2
17 5 13 3 -3 4 -12 1 -19z m230 -10 c-3 -7 -5 -2 -5 12 0 14 2 19 5 13 2 -7 2
-19 0 -25z m-650 0 c-3 -8 -6 -5 -6 6 -1 11 2 17 5 13 3 -3 4 -12 1 -19z m680
0 c-3 -8 -6 -5 -6 6 -1 11 2 17 5 13 3 -3 4 -12 1 -19z m1867 -21 c7 -6 4 -7
-6 -3 -10 3 -18 0 -18 -6 0 -6 -2 -9 -5 -6 -4 3 -3 19 2 34 6 24 8 26 11 9 2
-11 9 -24 16 -28z m1169 23 c-3 -11 -7 -20 -9 -20 -2 0 -4 9 -4 20 0 11 4 20
9 20 5 0 7 -9 4 -20z m554 -2 c-3 -8 -6 -5 -6 6 -1 11 2 17 5 13 3 -3 4 -12 1
-19z m-1697 2 c0 -5 -8 -10 -17 -10 -15 0 -16 2 -3 10 19 12 20 12 20 0z
m1257 -12 c-3 -8 -6 -5 -6 6 -1 11 2 17 5 13 3 -3 4 -12 1 -19z m-3324 -8 c-3
-12 -8 -19 -11 -16 -5 6 5 36 12 36 2 0 2 -9 -1 -20z m134 -18 c9 2 18 -4 20
-12 3 -9 1 -11 -4 -5 -4 6 -15 10 -23 10 -8 0 -15 9 -16 20 -1 16 0 16 3 2 3
-10 12 -16 20 -15z m142 1 c0 -33 -1 -35 -9 -15 -8 20 -4 52 6 52 2 0 4 -17 3
-37z m3638 5 c-3 -7 -5 -2 -5 12 0 14 2 19 5 13 2 -7 2 -19 0 -25z m30 10 c-3
-8 -6 -5 -6 6 -1 11 2 17 5 13 3 -3 4 -12 1 -19z m-4127 6 c0 -8 -19 -13 -24
-6 -3 5 1 9 9 9 8 0 15 -2 15 -3z m257 -16 c-3 -8 -6 -5 -6 6 -1 11 2 17 5 13
3 -3 4 -12 1 -19z m2043 2 c-6 -11 -13 -20 -16 -20 -2 0 0 9 6 20 6 11 13 20
16 20 2 0 0 -9 -6 -20z m-1935 0 c3 -5 1 -10 -4 -10 -6 0 -11 5 -11 10 0 6 2
10 4 10 3 0 8 -4 11 -10z m52 -32 c-3 -7 -5 -2 -5 12 0 14 2 19 5 13 2 -7 2
-19 0 -25z m2983 -3 c0 -5 -5 -3 -10 5 -5 8 -10 20 -10 25 0 6 5 3 10 -5 5 -8
10 -19 10 -25z m-3003 3 c-3 -8 -6 -5 -6 6 -1 11 2 17 5 13 3 -3 4 -12 1 -19z
m3611 2 c-7 -10 -14 -18 -15 -16 -6 6 9 36 18 36 5 0 4 -9 -3 -20z m-4459 -6
c4 3 8 -4 8 -15 2 -17 -1 -18 -13 -9 -8 7 -14 20 -13 29 0 10 2 12 6 3 2 -6 8
-10 12 -8z m238 -6 c-3 -8 -6 -5 -6 6 -1 11 2 17 5 13 3 -3 4 -12 1 -19z
m2451 4 c2 -7 -3 -12 -10 -12 -8 0 -15 7 -15 15 0 18 19 15 25 -3z m1137 -5
c1 -7 6 -11 13 -9 16 3 15 -6 -3 -24 -13 -14 -15 -13 -15 8 0 19 -2 20 -11 8
-9 -12 -10 -12 -5 3 3 10 6 24 6 29 0 15 15 0 15 -15z m-3012 -2 c4 -8 2 -17
-3 -20 -6 -4 -10 3 -10 14 0 25 6 27 13 6z m-713 -10 c0 -12 -19 -12 -23 0 -4
9 -1 12 9 8 7 -3 14 -7 14 -8z m40 11 c0 -2 -7 -9 -15 -16 -13 -11 -14 -10 -9
4 5 14 24 23 24 12z m740 -15 c0 -5 -6 -14 -14 -20 -12 -10 -13 -8 -9 8 5 21
23 30 23 12z m3437 -13 c-3 -8 -6 -5 -6 6 -1 11 2 17 5 13 3 -3 4 -12 1 -19z
m-4112 2 c3 -5 1 -10 -4 -10 -6 0 -11 5 -11 10 0 6 2 10 4 10 3 0 8 -4 11 -10z
m55 -6 c0 -8 -4 -12 -10 -9 -5 3 -10 10 -10 16 0 5 5 9 10 9 6 0 10 -7 10 -16z
m-143 -36 c-3 -7 -5 -2 -5 12 0 14 2 19 5 13 2 -7 2 -19 0 -25z m-55 -3 c3
-14 1 -25 -3 -25 -5 0 -9 11 -9 25 0 14 2 25 4 25 2 0 6 -11 8 -25z m513 15
c-3 -5 -12 -10 -18 -10 -7 0 -6 4 3 10 19 12 23 12 15 0z m237 -12 c-7 -7 -12
-8 -12 -2 0 14 12 26 19 19 2 -3 -1 -11 -7 -17z m168 18 c0 -3 -4 -8 -10 -11
-5 -3 -10 -1 -10 4 0 6 5 11 10 11 6 0 10 -2 10 -4z m3457 -18 c-3 -8 -6 -5
-6 6 -1 11 2 17 5 13 3 -3 4 -12 1 -19z m-4347 2 c0 -5 -5 -10 -11 -10 -5 0
-7 5 -4 10 3 6 8 10 11 10 2 0 4 -4 4 -10z m599 -7 c0 -11 -3 -13 -6 -5 -2 6
-9 10 -14 6 -5 -3 -9 0 -9 5 0 6 7 11 15 11 8 0 15 -8 14 -17z m2015 2 c-4 -8
-11 -12 -16 -9 -6 4 -5 10 3 15 19 12 19 11 13 -6z m1296 11 c0 -3 -4 -8 -10
-11 -5 -3 -10 -1 -10 4 0 6 5 11 10 11 6 0 10 -2 10 -4z m-1172 -50 c-1 -27
-5 -32 -21 -28 -17 4 -18 2 -8 -17 7 -12 17 -19 23 -15 5 4 2 -5 -7 -20 -14
-21 -20 -24 -31 -15 -11 9 -14 8 -15 -2 0 -10 -2 -10 -5 -2 -3 7 0 22 6 33 9
18 8 25 -6 41 -9 10 -12 19 -6 19 6 0 13 8 16 18 3 11 4 10 3 -5 -1 -12 1 -22
6 -23 36 -2 39 1 35 29 -2 17 -1 28 4 25 5 -3 8 -20 6 -38z m1709 22 c-3 -8
-6 -5 -6 6 -1 11 2 17 5 13 3 -3 4 -12 1 -19z m-4293 -3 c-4 -8 -8 -15 -10
-15 -2 0 -4 7 -4 15 0 8 4 15 10 15 5 0 7 -7 4 -15z m76 -5 c0 -5 -5 -10 -11
-10 -5 0 -7 5 -4 10 3 6 8 10 11 10 2 0 4 -4 4 -10z m-110 -4 c0 -3 -4 -8 -10
-11 -5 -3 -10 -1 -10 4 0 6 5 11 10 11 6 0 10 -2 10 -4z m267 -18 c-3 -8 -6
-5 -6 6 -1 11 2 17 5 13 3 -3 4 -12 1 -19z m2215 -8 c7 0 6 5 -2 15 -9 11 -9
15 -1 15 18 0 25 -28 11 -45 -17 -20 -35 -9 -37 22 -1 22 1 24 8 10 6 -9 15
-17 21 -17z m298 13 c0 -14 2 -15 9 -5 7 11 10 10 15 -3 3 -9 3 -22 -1 -27 -3
-7 -1 -8 5 -4 7 4 12 3 12 -3 0 -5 -4 -13 -10 -16 -15 -10 -12 -38 4 -32 9 4
14 -3 14 -20 0 -14 5 -29 12 -33 7 -4 10 -13 6 -19 -4 -6 -2 -9 7 -6 7 3 22
-4 33 -16 10 -13 13 -19 7 -15 -7 4 -13 2 -13 -3 0 -6 -8 -11 -17 -11 -16 0
-16 -1 0 -17 14 -15 19 -15 26 -5 5 8 19 12 32 10 19 -2 24 -8 22 -31 -2 -24
1 -27 18 -22 11 4 19 3 18 -2 -4 -21 2 -32 14 -27 9 3 12 -6 9 -33 -3 -30 1
-41 17 -50 17 -11 19 -10 15 2 -4 8 -10 15 -15 15 -5 0 -9 6 -9 14 0 12 4 12
30 0 17 -9 27 -20 24 -28 -4 -9 3 -13 20 -13 14 0 26 4 26 9 0 5 4 7 9 4 10
-6 8 -83 -3 -107 -4 -9 -8 -27 -10 -40 -2 -13 -6 -31 -9 -39 -3 -8 -11 -33
-18 -55 -23 -78 -100 -223 -141 -266 -7 -8 -32 -40 -56 -71 -23 -32 -88 -101
-144 -155 -57 -54 -150 -146 -208 -204 -58 -58 -112 -108 -120 -111 -33 -11
-180 52 -330 142 -78 47 -126 71 -148 76 -8 1 -22 10 -31 18 -10 9 -21 16 -26
16 -4 0 -5 -74 -1 -165 4 -94 3 -165 -2 -165 -12 0 -21 65 -28 209 -9 155 -9
155 -81 129 -32 -11 -86 -36 -120 -55 l-63 -35 0 31 c0 21 -6 34 -17 38 -10 3
-30 17 -45 31 l-27 25 -6 -29 c-4 -16 -16 -49 -27 -74 -20 -43 -32 -67 -85
-172 -14 -27 -26 -54 -27 -60 -1 -7 -7 -29 -13 -48 -7 -19 -17 -54 -23 -77 -6
-24 -14 -43 -19 -43 -10 0 -8 31 3 48 4 7 10 32 12 55 6 55 38 131 79 187 18
25 33 47 33 50 0 3 5 25 12 50 7 25 16 60 20 78 l8 33 -61 -6 c-34 -4 -87 -11
-117 -16 -139 -26 -347 -54 -363 -51 -16 3 -17 10 -12 45 13 79 54 222 85 301
17 43 29 84 26 91 -2 7 3 15 12 18 9 2 26 26 36 53 11 27 26 55 33 62 16 17
17 36 1 26 -7 -4 -8 -3 -4 5 4 6 12 8 18 5 8 -5 9 -1 5 10 -4 9 -3 15 2 11 5
-3 15 8 23 25 7 16 19 30 27 30 8 0 11 7 8 20 -3 11 0 20 6 20 6 0 18 6 26 14
9 8 33 17 53 21 34 6 36 5 31 -14 -6 -22 11 -29 21 -8 3 6 3 2 0 -10 -4 -17
-2 -21 10 -17 11 4 13 0 9 -15 -3 -12 -1 -21 6 -21 5 0 8 -7 4 -16 -3 -9 0
-20 8 -25 11 -7 9 -9 -6 -9 -18 -1 -18 -2 -3 -10 9 -6 19 -24 23 -40 4 -17 11
-30 16 -30 5 0 9 -9 9 -19 0 -31 19 -35 41 -9 11 13 18 18 15 12 -3 -6 4 -21
15 -33 12 -12 19 -25 16 -28 -3 -2 -13 7 -23 22 -12 19 -19 23 -25 14 -10 -17
7 -49 26 -49 8 0 15 -6 16 -12 0 -9 2 -9 6 1 4 10 9 8 18 -10 13 -23 13 -23
20 16 11 64 17 74 25 39 4 -17 10 -37 15 -44 6 -9 4 -11 -5 -5 -10 6 -12 4 -7
-8 3 -9 1 -19 -4 -23 -6 -4 -1 -11 12 -18 16 -8 24 -22 26 -46 2 -19 9 -45 14
-57 7 -12 10 -53 7 -94 -4 -70 -3 -71 10 -39 8 20 11 49 8 71 -6 40 1 54 20
38 15 -12 34 -4 34 16 0 7 11 16 25 19 14 4 25 14 25 23 0 13 3 14 11 6 13
-13 56 1 75 24 6 7 22 15 35 17 13 3 26 6 29 7 3 1 10 3 15 4 6 0 32 11 58 23
43 19 84 21 72 2 -2 -4 11 0 30 9 25 12 34 23 35 40 0 23 1 24 13 6 11 -14 16
-15 22 -5 5 9 4 11 -3 6 -7 -4 -12 -4 -12 1 1 14 27 43 39 43 6 0 11 8 12 18
0 10 3 12 6 5 6 -17 23 -17 23 0 0 7 15 18 33 25 17 6 48 25 67 42 19 16 38
30 43 30 4 0 7 7 7 16 0 8 5 12 10 9 6 -3 10 1 10 10 0 9 3 14 8 12 4 -3 18
13 31 34 14 21 34 42 45 45 21 7 176 163 183 184 9 28 17 40 27 40 6 0 20 12
31 26 10 14 27 35 37 46 10 12 18 27 18 35 0 7 6 13 13 13 8 1 7 4 -3 13 -17
13 -18 21 -6 56 6 18 10 21 17 10 6 -10 9 -2 9 24 0 20 5 37 10 37 6 0 10 -8
10 -17z m956 -5 c-3 -13 -5 -38 -5 -57 -1 -49 -11 -33 -14 22 -2 40 2 50 20
56 2 1 1 -9 -1 -21z m-3859 -1 c-1 -5 -6 -8 -10 -8 -4 1 -14 1 -22 1 -8 0 -15
3 -15 8 0 4 11 7 25 7 14 0 24 -4 22 -8z m933 3 c0 -5 -5 -10 -11 -10 -5 0 -7
5 -4 10 3 6 8 10 11 10 2 0 4 -4 4 -10z m2807 -12 c-3 -8 -6 -5 -6 6 -1 11 2
17 5 13 3 -3 4 -12 1 -19z m174 -11 c-10 -9 -11 -8 -5 6 3 10 9 15 12 12 3 -3
0 -11 -7 -18z m-4021 3 c0 -5 -4 -10 -10 -10 -5 0 -10 5 -10 10 0 6 5 10 10
10 6 0 10 -4 10 -10z m1040 -37 c0 -15 -3 -23 -7 -20 -9 10 -10 56 -1 51 4 -3
8 -17 8 -31z m1736 15 c-9 -5 -13 -14 -9 -21 4 -7 0 -6 -10 2 -22 17 -22 28 1
34 25 5 37 -4 18 -15z m-2701 -7 c-3 -6 -11 -11 -16 -11 -5 0 -4 6 3 14 14 16
24 13 13 -3z m3732 4 c0 -8 -4 -12 -9 -9 -5 3 -6 10 -3 15 9 13 12 11 12 -6z
m290 -22 c-16 -16 -17 -16 -17 0 0 10 5 15 10 12 6 -3 10 -1 10 6 0 7 3 9 7 5
4 -3 -1 -14 -10 -23z m-2177 8 c0 -5 7 -8 16 -7 18 1 39 -40 25 -49 -5 -2 -14
2 -21 10 -9 11 -9 15 -1 15 7 0 9 5 6 10 -4 6 -10 8 -15 5 -4 -3 -13 2 -20 10
-9 10 -9 15 -1 15 6 0 11 -4 11 -9z m67 3 c-3 -3 -12 -4 -19 -1 -8 3 -5 6 6 6
11 1 17 -2 13 -5z m2172 -39 c0 -5 -4 -3 -9 5 -5 8 -9 22 -9 30 0 16 17 -16
18 -35z m-3529 25 c0 -5 -2 -10 -4 -10 -3 0 -8 5 -11 10 -3 6 -1 10 4 10 6 0
11 -4 11 -10z m2033 -10 c3 -11 1 -18 -4 -14 -5 3 -9 12 -9 20 0 20 7 17 13
-6z m1329 -7 c-3 -16 -7 -22 -10 -15 -4 13 4 42 11 42 2 0 2 -12 -1 -27z
m-3906 10 c-9 -10 -35 -13 -40 -4 -3 4 7 8 21 9 15 1 23 -1 19 -5z m1671 -8
c8 -8 18 -13 21 -11 4 2 12 -1 17 -8 13 -14 -4 -49 -25 -54 -8 -2 -19 -8 -25
-14 -7 -8 -6 -8 4 -3 9 5 12 4 8 -2 -9 -14 -57 -4 -57 13 0 7 4 15 10 19 5 3
7 12 4 19 -3 8 -1 17 5 20 6 4 8 13 4 21 -7 19 14 19 34 0z m-1870 -17 c-3 -8
-6 -5 -6 6 -1 11 2 17 5 13 3 -3 4 -12 1 -19z m348 12 c3 -5 -1 -10 -9 -10 -9
0 -16 5 -16 10 0 6 4 10 9 10 6 0 13 -4 16 -10z m115 6 c0 -2 -7 -6 -15 -10
-8 -3 -15 -1 -15 4 0 6 7 10 15 10 8 0 15 -2 15 -4z m427 -18 c-3 -8 -6 -5 -6
6 -1 11 2 17 5 13 3 -3 4 -12 1 -19z m1960 0 c-3 -8 -6 -5 -6 6 -1 11 2 17 5
13 3 -3 4 -12 1 -19z m1450 -10 c-3 -7 -5 -2 -5 12 0 14 2 19 5 13 2 -7 2 -19
0 -25z m-3660 0 c-3 -8 -6 -5 -6 6 -1 11 2 17 5 13 3 -3 4 -12 1 -19z m93 -9
c0 -16 -4 -28 -9 -25 -8 5 -3 56 5 56 2 0 4 -14 4 -31z m1497 25 c-3 -3 -12
-4 -19 -1 -8 3 -5 6 6 6 11 1 17 -2 13 -5z m-2287 -39 c-6 -15 -13 -25 -17
-21 -3 3 0 17 7 31 17 32 24 26 10 -10z m1690 21 c0 -8 -4 -18 -10 -21 -5 -3
-10 3 -10 14 0 12 5 21 10 21 6 0 10 -6 10 -14z m380 -23 c0 -16 12 -17 29 0
10 10 11 9 6 -5 -9 -22 -45 -24 -45 -3 0 8 -7 15 -15 15 -8 0 -15 5 -15 11 0
5 -5 7 -12 3 -7 -4 -8 -3 -4 4 9 15 56 -6 56 -25z m2020 27 c0 -5 -5 -10 -11
-10 -5 0 -7 5 -4 10 3 6 8 10 11 10 2 0 4 -4 4 -10z m87 -12 c-3 -8 -6 -5 -6
6 -1 11 2 17 5 13 3 -3 4 -12 1 -19z m-3057 -9 c0 -6 -4 -7 -10 -4 -5 3 -10
11 -10 16 0 6 5 7 10 4 6 -3 10 -11 10 -16z m-868 -11 c-7 -7 -12 -8 -12 -2 0
14 12 26 19 19 2 -3 -1 -11 -7 -17z m208 6 c0 -2 -7 -4 -15 -4 -8 0 -15 4 -15
10 0 5 7 7 15 4 8 -4 15 -8 15 -10z m2560 12 c0 -9 -50 -12 -62 -5 -8 6 1 9
25 9 20 0 37 -2 37 -4z m-2520 -16 c0 -5 -7 -7 -15 -4 -8 4 -15 8 -15 10 0 2
7 4 15 4 8 0 15 -4 15 -10z m2475 -13 c7 -7 4 -7 -10 -2 -11 5 -31 8 -44 8
-18 -1 -20 1 -10 8 15 9 48 3 64 -14z m-2405 3 c0 -5 -4 -10 -10 -10 -5 0 -10
5 -10 10 0 6 5 10 10 10 6 0 10 -4 10 -10z m248 -4 c-7 -8 -15 -12 -17 -11 -5
6 10 25 20 25 5 0 4 -6 -3 -14z m1908 -4 c1 -7 0 -8 -3 -2 -2 5 -9 8 -14 4 -5
-3 -9 0 -9 6 0 15 23 7 26 -8z m1498 -6 c-3 -9 -10 -16 -15 -16 -6 0 -5 9 1
21 13 24 24 20 14 -5z m-3484 -1 c7 -8 9 -15 6 -15 -4 0 -14 7 -22 15 -9 8
-11 15 -6 15 5 0 15 -7 22 -15z m207 -7 c-3 -8 -6 -5 -6 6 -1 11 2 17 5 13 3
-3 4 -12 1 -19z m110 0 c0 -13 -1 -17 -4 -10 -3 6 -10 9 -16 5 -7 -4 -6 1 2
10 17 21 17 21 18 -5z m153 -22 c-5 -5 -6 -16 -3 -25 4 -14 3 -14 -6 -1 -10
13 -12 13 -21 0 -7 -11 -10 -11 -10 -2 0 7 7 15 15 18 8 4 13 10 10 14 -3 5
-2 16 2 26 6 16 7 16 14 -2 4 -10 3 -23 -1 -28z m46 24 c0 -11 -4 -20 -8 -20
-4 0 -8 9 -8 20 0 11 4 20 8 20 4 0 8 -9 8 -20z m-409 -12 c-3 -8 -6 -5 -6 6
-1 11 2 17 5 13 3 -3 4 -12 1 -19z m-867 8 c0 -3 -4 -8 -10 -11 -5 -3 -10 -1
-10 4 0 6 5 11 10 11 6 0 10 -2 10 -4z m1147 -18 c-3 -8 -6 -5 -6 6 -1 11 2
17 5 13 3 -3 4 -12 1 -19z m3014 -25 c-9 -15 -10 -12 -10 17 0 29 1 32 10 18
7 -12 7 -24 0 -35z m-3631 33 c0 -2 -7 -7 -16 -10 -8 -3 -12 -2 -9 4 6 10 25
14 25 6z m403 -3 c-7 -2 -13 -12 -13 -20 0 -9 -3 -14 -6 -10 -10 10 4 37 18
36 10 0 10 -2 1 -6z m-456 -35 c-3 -7 -5 -2 -5 12 0 14 2 19 5 13 2 -7 2 -19
0 -25z m2247 24 c3 -5 -1 -9 -9 -9 -8 0 -15 4 -15 9 0 4 4 8 9 8 6 0 12 -4 15
-8z m1521 -17 c0 -14 -3 -25 -6 -25 -4 0 -9 11 -11 25 -3 15 -1 25 6 25 6 0
11 -11 11 -25z m-3705 5 c-8 -5 -19 -10 -25 -10 -5 0 -3 5 5 10 8 5 20 10 25
10 6 0 3 -5 -5 -10z m113 -5 c-3 -9 -8 -14 -10 -11 -3 3 -2 9 2 15 9 16 15 13
8 -4z m297 -6 c0 -6 -4 -7 -10 -4 -5 3 -10 11 -10 16 0 6 5 7 10 4 6 -3 10
-11 10 -16z m2448 -4 c-3 -3 -9 2 -12 12 -6 14 -5 15 5 6 7 -7 10 -15 7 -18z
m-2324 9 c-6 -3 -9 -15 -7 -28 3 -13 0 -27 -7 -31 -8 -5 -10 3 -7 26 6 42 5
39 20 38 8 0 8 -2 1 -5z m3036 2 c0 -3 -4 -8 -10 -11 -5 -3 -10 -1 -10 4 0 6
5 11 10 11 6 0 10 -2 10 -4z m-3650 -26 c0 -11 -4 -20 -9 -20 -5 0 -7 9 -4 20
3 11 7 20 9 20 2 0 4 -9 4 -20z m840 10 c0 -5 -8 -10 -17 -10 -15 0 -16 2 -3
10 19 12 20 12 20 0z m-653 -42 c-3 -8 -6 -5 -6 6 -1 11 2 17 5 13 3 -3 4 -12
1 -19z m611 -25 c-13 -12 -14 -10 -10 18 4 27 6 29 14 14 7 -12 6 -21 -4 -32z
m2772 37 c0 -5 -2 -10 -4 -10 -3 0 -8 5 -11 10 -3 6 -1 10 4 10 6 0 11 -4 11
-10z m-2880 -33 c0 -5 -4 -5 -10 -2 -5 3 -10 14 -10 23 0 15 2 15 10 2 5 -8
10 -19 10 -23z m-940 13 c0 -5 -5 -10 -11 -10 -5 0 -7 5 -4 10 3 6 8 10 11 10
2 0 4 -4 4 -10z m65 0 c3 -5 1 -10 -4 -10 -6 0 -11 5 -11 10 0 6 2 10 4 10 3
0 8 -4 11 -10z m472 -22 c-3 -8 -6 -5 -6 6 -1 11 2 17 5 13 3 -3 4 -12 1 -19z
m204 9 c-5 -5 -7 -16 -4 -23 3 -8 0 -14 -6 -14 -6 0 -10 11 -9 23 1 13 8 24
15 24 9 0 10 -4 4 -10z m-814 -19 c-3 -8 -6 -5 -6 6 -1 11 2 17 5 13 3 -3 4
-12 1 -19z m318 12 c3 -5 1 -10 -4 -10 -6 0 -11 5 -11 10 0 6 2 10 4 10 3 0 8
-4 11 -10z m-194 -17 c8 2 11 2 7 0 -14 -8 -9 -63 5 -59 6 1 9 1 5 -1 -4 -2
-4 -12 0 -21 5 -16 5 -16 -11 0 -9 9 -17 26 -17 38 0 15 -5 20 -14 17 -9 -4
-13 0 -11 11 2 9 4 22 4 27 1 6 5 4 9 -3 5 -7 15 -11 23 -9z m816 -5 c-3 -8
-6 -5 -6 6 -1 11 2 17 5 13 3 -3 4 -12 1 -19z m81 -13 c-3 -3 -9 2 -12 12 -6
14 -5 15 5 6 7 -7 10 -15 7 -18z m1362 15 c0 -5 -5 -10 -11 -10 -5 0 -7 5 -4
10 3 6 8 10 11 10 2 0 4 -4 4 -10z m934 -6 c3 -8 2 -12 -4 -9 -6 3 -10 10 -10
16 0 14 7 11 14 -7z m-2404 2 c0 -3 -4 -8 -10 -11 -5 -3 -10 -1 -10 4 0 6 5
11 10 11 6 0 10 -2 10 -4z m1509 -10 c9 -10 8 -15 -3 -19 -10 -4 -14 0 -13 14
2 23 1 23 16 5z m-2352 -33 c-3 -10 -5 -4 -5 12 0 17 2 24 5 18 2 -7 2 -21 0
-30z m4082 -13 c0 -9 -4 -8 -9 5 -5 11 -9 27 -9 35 0 9 4 8 9 -5 5 -11 9 -27
9 -35z m-2372 18 c-3 -8 -6 -5 -6 6 -1 11 2 17 5 13 3 -3 4 -12 1 -19z m53 7
c0 -8 -4 -15 -10 -15 -5 0 -7 7 -4 15 4 8 8 15 10 15 2 0 4 -7 4 -15z m2127
-17 c-3 -8 -6 -5 -6 6 -1 11 2 17 5 13 3 -3 4 -12 1 -19z m-3860 -25 c-3 -10
-5 -4 -5 12 0 17 2 24 5 18 2 -7 2 -21 0 -30z m283 27 c0 -5 -4 -10 -10 -10
-5 0 -10 5 -10 10 0 6 5 10 10 10 6 0 10 -4 10 -10z m1955 0 c-3 -5 -11 -10
-16 -10 -6 0 -7 5 -4 10 3 6 11 10 16 10 6 0 7 -4 4 -10z m1577 -15 c3 -13 1
-22 -3 -19 -9 5 -13 44 -5 44 2 0 6 -11 8 -25z m168 6 c0 -5 -7 -12 -16 -15
-14 -5 -15 -4 -4 9 14 17 20 19 20 6z m-2407 -26 c-3 -9 -8 -14 -10 -11 -3 3
-2 9 2 15 9 16 15 13 8 -4z m601 0 c-10 -8 -23 -15 -28 -15 -6 0 -1 7 10 15
10 8 23 15 28 15 6 0 1 -7 -10 -15z m1759 2 c3 -8 2 -20 -3 -26 -5 -9 -7 -4
-7 13 0 29 2 32 10 13z m122 1 c5 4 5 1 1 -5 -10 -18 -23 -16 -30 3 -5 13 -4
14 7 6 8 -7 18 -8 22 -4z m-305 -2 c0 -2 -7 -9 -15 -16 -12 -10 -15 -10 -15 4
0 9 7 16 15 16 8 0 15 -2 15 -4z m40 -3 c0 -5 -8 -17 -17 -28 -14 -18 -15 -18
-9 -2 3 10 6 23 6 28 0 5 5 9 10 9 6 0 10 -3 10 -7z m90 -3 c0 -5 -2 -10 -4
-10 -3 0 -8 5 -11 10 -3 6 -1 10 4 10 6 0 11 -4 11 -10z m-3260 -20 c0 -19
-18 -19 -23 -1 -3 14 -1 18 9 14 8 -3 14 -9 14 -13z m151 -7 c-12 -20 -14 -14
-5 12 4 9 9 14 11 11 3 -2 0 -13 -6 -23z m2849 -5 c0 -26 -9 -19 -15 11 -2 12
0 19 6 16 5 -4 9 -16 9 -27z m-3326 3 c-9 -9 -34 -9 -34 -1 0 5 9 8 20 7 10
-1 17 -3 14 -6z m-254 -9 c0 -5 -11 -14 -25 -20 -29 -13 -33 -5 -7 14 20 15
32 18 32 6z m77 -14 c-3 -8 -6 -5 -6 6 -1 11 2 17 5 13 3 -3 4 -12 1 -19z
m3715 13 c8 12 9 12 6 0 -6 -22 -28 -25 -27 -4 0 12 2 14 6 4 5 -11 7 -11 15
0z m-102 -11 c0 -5 -4 -10 -10 -10 -5 0 -10 5 -10 10 0 6 5 10 10 10 6 0 10
-4 10 -10z m310 -23 c0 -5 -4 -5 -10 -2 -5 3 -10 14 -10 23 0 15 2 15 10 2 5
-8 10 -19 10 -23z m-3203 1 c-3 -8 -6 -5 -6 6 -1 11 2 17 5 13 3 -3 4 -12 1
-19z m3257 6 c3 -8 2 -12 -4 -9 -6 3 -10 10 -10 16 0 14 7 11 14 -7z m-449
-14 c3 -6 -1 -7 -9 -4 -18 7 -21 14 -7 14 6 0 13 -4 16 -10z m62 -22 c2 -27 0
-29 -7 -13 -6 14 -9 15 -9 5 -1 -13 -3 -13 -10 -1 -7 10 -4 19 7 28 9 7 17 13
17 13 1 0 1 -15 2 -32z m160 10 c-3 -8 -6 -5 -6 6 -1 11 2 17 5 13 3 -3 4 -12
1 -19z m-36 -18 c6 0 7 5 3 12 -4 7 -3 8 5 4 9 -6 9 -11 0 -22 -15 -18 -29 -8
-28 19 1 17 2 18 6 5 2 -10 9 -18 14 -18z m159 20 c0 -5 -2 -10 -4 -10 -3 0
-8 5 -11 10 -3 6 -1 10 4 10 6 0 11 -4 11 -10z m-3978 -27 c-2 -12 -8 -20 -13
-18 -12 8 -7 42 6 42 7 0 10 -10 7 -24z m694 12 c-3 -20 -16 -31 -16 -13 0 13
8 28 16 28 1 0 1 -7 0 -15z m3274 -19 c0 -4 -9 -1 -19 6 -11 7 -17 16 -15 20
5 8 34 -15 34 -26z m135 24 c3 -5 1 -10 -4 -10 -6 0 -11 5 -11 10 0 6 2 10 4
10 3 0 8 -4 11 -10z m-353 -22 c-7 -7 -12 -8 -12 -2 0 6 3 14 7 17 3 4 9 5 12
2 2 -3 -1 -11 -7 -17z m258 12 c0 -5 -5 -10 -11 -10 -5 0 -7 5 -4 10 3 6 8 10
11 10 2 0 4 -4 4 -10z m-3010 -21 c0 -6 -4 -7 -10 -4 -5 3 -10 11 -10 16 0 6
5 7 10 4 6 -3 10 -11 10 -16z m1040 5 c0 -2 -7 -4 -15 -4 -8 0 -15 4 -15 10 0
5 7 7 15 4 8 -4 15 -8 15 -10z m1740 -3 c0 -5 -7 -12 -16 -15 -14 -5 -15 -4
-4 9 14 17 20 19 20 6z m-3739 -38 c-9 -16 -10 -15 -9 9 2 16 6 24 11 19 5 -5
5 -17 -2 -28z m1734 27 c3 -5 1 -10 -4 -10 -6 0 -11 5 -11 10 0 6 2 10 4 10 3
0 8 -4 11 -10z m2232 -22 c-3 -7 -5 -2 -5 12 0 14 2 19 5 13 2 -7 2 -19 0 -25z
m123 22 c0 -5 -5 -10 -11 -10 -5 0 -7 5 -4 10 3 6 8 10 11 10 2 0 4 -4 4 -10z
m-420 -5 c0 -7 -30 -13 -34 -7 -3 4 4 9 15 9 10 1 19 0 19 -2z m147 -17 c-3
-8 -6 -5 -6 6 -1 11 2 17 5 13 3 -3 4 -12 1 -19z m-3861 0 c4 -6 3 -8 -4 -4
-6 3 -13 -2 -15 -11 -4 -14 -5 -13 -6 5 -1 23 13 30 25 10z m148 -10 c-3 -4
-9 -8 -15 -8 -5 0 -9 4 -9 8 0 5 7 9 15 9 8 0 12 -4 9 -9z m746 -14 c0 -22
-16 -17 -17 6 -1 11 2 18 8 15 5 -4 9 -13 9 -21z m3310 1 c-7 -9 -15 -13 -17
-11 -6 6 20 36 26 30 2 -2 -2 -10 -9 -19z m-395 6 c3 -5 2 -12 -3 -15 -5 -3
-9 1 -9 9 0 17 3 19 12 6z m165 -27 c0 -13 -3 -24 -7 -24 -5 0 -8 13 -8 29 0
16 3 27 8 24 4 -2 7 -15 7 -29z m90 32 c0 -3 -4 -8 -10 -11 -5 -3 -10 -1 -10
4 0 6 5 11 10 11 6 0 10 -2 10 -4z m-3979 -33 c-12 -20 -14 -14 -5 12 4 9 9
14 11 11 3 -2 0 -13 -6 -23z m634 17 c-3 -5 -12 -10 -18 -10 -7 0 -6 4 3 10
19 12 23 12 15 0z m3303 -21 c-3 -8 -7 -3 -11 10 -4 17 -3 21 5 13 5 -5 8 -16
6 -23z m502 17 c0 -8 -4 -17 -8 -20 -4 -2 -8 4 -8 15 0 10 4 19 8 19 4 0 8 -6
8 -14z m-3415 -6 c3 -5 1 -10 -4 -10 -6 0 -11 5 -11 10 0 6 2 10 4 10 3 0 8
-4 11 -10z m2766 -36 c7 -8 2 -11 -16 -11 -14 0 -25 3 -25 8 0 5 5 9 11 9 5 0
7 5 4 10 -3 6 -3 16 2 23 5 8 9 6 11 -8 2 -11 8 -25 13 -31z m-3358 21 c-3 -9
-8 -14 -10 -11 -3 3 -2 9 2 15 9 16 15 13 8 -4z m347 5 c0 -5 -4 -10 -10 -10
-5 0 -10 5 -10 10 0 6 5 10 10 10 6 0 10 -4 10 -10z m784 -5 c3 -8 1 -15 -4
-15 -6 0 -10 7 -10 15 0 8 2 15 4 15 2 0 6 -7 10 -15z m2176 -7 c0 -18 -2 -20
-9 -8 -6 8 -7 18 -5 22 9 14 14 9 14 -14z m-3070 -21 c0 -5 -4 -5 -10 -2 -5 3
-10 14 -10 23 0 15 2 15 10 2 5 -8 10 -19 10 -23z m300 18 c-7 -9 -15 -13 -19
-10 -3 3 1 10 9 15 21 14 24 12 10 -5z m552 -7 c-7 -7 -12 -8 -12 -2 0 14 12
26 19 19 2 -3 -1 -11 -7 -17z m78 7 c0 -8 -4 -15 -10 -15 -5 0 -7 7 -4 15 4 8
8 15 10 15 2 0 4 -7 4 -15z m-1098 -40 c9 -20 9 -20 -6 -1 -9 11 -16 27 -15
35 0 14 1 14 6 1 3 -8 10 -24 15 -35z m136 20 c-3 -3 -9 2 -12 12 -6 14 -5 15
5 6 7 -7 10 -15 7 -18z m3002 15 c0 -5 -5 -10 -11 -10 -5 0 -7 5 -4 10 3 6 8
10 11 10 2 0 4 -4 4 -10z m456 -28 c1 -20 0 -28 -3 -17 -3 11 -10 23 -17 28
-8 5 -7 10 4 17 8 5 15 10 15 10 0 0 1 -17 1 -38z m-3401 18 c3 -5 1 -10 -4
-10 -6 0 -11 5 -11 10 0 6 2 10 4 10 3 0 8 -4 11 -10z m803 -9 c3 -8 -1 -12
-9 -9 -7 2 -15 10 -17 17 -3 8 1 12 9 9 7 -2 15 -10 17 -17z m2482 9 c0 -5 -2
-10 -4 -10 -3 0 -8 5 -11 10 -3 6 -1 10 4 10 6 0 11 -4 11 -10z m-3120 -15 c0
-8 -4 -15 -10 -15 -5 0 -10 7 -10 15 0 8 5 15 10 15 6 0 10 -7 10 -15z m-103
-17 c-3 -8 -6 -5 -6 6 -1 11 2 17 5 13 3 -3 4 -12 1 -19z m50 -10 c-3 -7 -5
-2 -5 12 0 14 2 19 5 13 2 -7 2 -19 0 -25z m838 12 c-3 -5 -11 -10 -16 -10 -6
0 -7 5 -4 10 3 6 11 10 16 10 6 0 7 -4 4 -10z m-1731 -15 c-4 -8 -8 -15 -10
-15 -2 0 -4 7 -4 15 0 8 4 15 10 15 5 0 7 -7 4 -15z m778 -27 c-6 -6 -7 0 -4
19 5 21 7 23 10 9 2 -10 0 -22 -6 -28z m3009 29 c-7 -7 -14 -8 -21 -1 -6 6 -2
10 12 11 16 2 18 -1 9 -10z m-2617 -26 c-4 -3 -9 0 -11 7 -4 10 -8 10 -19 1
-9 -7 -14 -8 -14 -1 0 6 6 12 13 15 14 5 40 -13 31 -22z m-437 -3 c-3 -8 -6
-5 -6 6 -1 11 2 17 5 13 3 -3 4 -12 1 -19z m153 -13 c0 -5 -5 -3 -10 5 -5 8
-10 20 -10 25 0 6 5 3 10 -5 5 -8 10 -19 10 -25z m55 26 c3 -5 1 -12 -5 -16
-5 -3 -10 1 -10 9 0 18 6 21 15 7z m105 5 c0 -3 -4 -8 -10 -11 -5 -3 -10 -1
-10 4 0 6 5 11 10 11 6 0 10 -2 10 -4z m700 -17 c0 -5 -4 -9 -10 -9 -5 0 -10
7 -10 16 0 8 5 12 10 9 6 -3 10 -10 10 -16z m-893 -11 c-3 -8 -6 -5 -6 6 -1
11 2 17 5 13 3 -3 4 -12 1 -19z m3169 2 c0 -11 -4 -20 -8 -20 -4 0 -8 9 -8 20
0 11 4 20 8 20 4 0 8 -9 8 -20z m-126 -16 c0 -14 -4 -23 -10 -19 -5 3 -10 15
-10 26 0 10 5 19 10 19 6 0 10 -12 10 -26z m-2845 -4 c-3 -5 -12 -10 -18 -10
-7 0 -6 4 3 10 19 12 23 12 15 0z m2870 1 c3 -5 1 -12 -5 -16 -5 -3 -10 1 -10
9 0 18 6 21 15 7z m-3312 -21 c3 -11 1 -18 -4 -14 -5 3 -9 12 -9 20 0 20 7 17
13 -6z m495 -5 c-3 -3 -9 2 -12 12 -6 14 -5 15 5 6 7 -7 10 -15 7 -18z m2859
-7 c-3 -7 -5 -2 -5 12 0 14 2 19 5 13 2 -7 2 -19 0 -25z m-3168 -33 c0 -5 -6
-1 -14 9 -8 10 -11 24 -8 29 6 10 21 -16 22 -38z m371 35 c0 -5 -5 -10 -11
-10 -5 0 -7 5 -4 10 3 6 8 10 11 10 2 0 4 -4 4 -10z m-1379 -31 c-5 -13 -10
-19 -10 -12 -1 15 10 45 15 40 3 -2 0 -15 -5 -28z m219 -9 c0 -13 -1 -13 -10
0 -5 8 -10 22 -10 30 0 13 1 13 10 0 5 -8 10 -22 10 -30z m647 18 c-3 -8 -6
-5 -6 6 -1 11 2 17 5 13 3 -3 4 -12 1 -19z m3500 -25 c-3 -10 -5 -2 -5 17 0
19 2 27 5 18 2 -10 2 -26 0 -35z m70 25 c-3 -8 -6 -5 -6 6 -1 11 2 17 5 13 3
-3 4 -12 1 -19z m-3340 -10 c-3 -8 -6 -5 -6 6 -1 11 2 17 5 13 3 -3 4 -12 1
-19z m-832 2 c3 -5 1 -10 -4 -10 -6 0 -11 5 -11 10 0 6 2 10 4 10 3 0 8 -4 11
-10z m660 1 c3 -5 1 -12 -5 -16 -5 -3 -10 1 -10 9 0 18 6 21 15 7z m-125 -5
c0 -3 -4 -8 -10 -11 -5 -3 -10 -1 -10 4 0 6 5 11 10 11 6 0 10 -2 10 -4z
m-533 -38 c-3 -8 -6 -5 -6 6 -1 11 2 17 5 13 3 -3 4 -12 1 -19z m813 -10 c0
-26 -9 -19 -15 11 -2 12 0 19 6 16 5 -4 9 -16 9 -27z m-853 0 c-3 -8 -6 -5 -6
6 -1 11 2 17 5 13 3 -3 4 -12 1 -19z m4440 -33 c6 -14 8 -25 3 -25 -4 0 -11 7
-14 16 -3 8 -10 12 -16 9 -6 -3 -7 1 -4 9 9 22 17 20 31 -9z m-4447 -45 c5 0
7 15 5 33 -4 25 -3 28 4 12 16 -34 13 -55 -9 -55 -17 0 -20 6 -18 38 1 36 1
36 5 5 2 -18 8 -33 13 -33z m905 50 c3 -5 -1 -10 -10 -10 -9 0 -13 5 -10 10 3
6 8 10 10 10 2 0 7 -4 10 -10z m-788 -32 c-3 -8 -6 -5 -6 6 -1 11 2 17 5 13 3
-3 4 -12 1 -19z m68 -8 c3 -5 1 -10 -4 -10 -6 0 -11 5 -11 10 0 6 2 10 4 10 3
0 8 -4 11 -10z m380 -20 c3 -6 -4 -10 -17 -10 -18 0 -20 2 -8 10 19 12 18 12
25 0z m-45 -4 c0 -2 -9 -6 -20 -9 -11 -3 -18 -1 -14 4 5 9 34 13 34 5z m3903
-21 c-7 -21 -12 -19 -10 4 0 11 5 18 9 15 4 -3 5 -11 1 -19z m-4436 -7 c-3 -8
-6 -5 -6 6 -1 11 2 17 5 13 3 -3 4 -12 1 -19z m33 12 c0 -5 -2 -10 -4 -10 -3
0 -8 5 -11 10 -3 6 -1 10 4 10 6 0 11 -4 11 -10z m4200 -10 c0 -5 -2 -10 -4
-10 -3 0 -8 5 -11 10 -3 6 -1 10 4 10 6 0 11 -4 11 -10z m-3683 -22 c-3 -8 -6
-5 -6 6 -1 11 2 17 5 13 3 -3 4 -12 1 -19z m64 -28 c5 -3 -1 -14 -13 -24 -19
-17 -20 -17 -15 -1 4 9 8 29 8 43 1 21 2 23 6 7 3 -11 9 -22 14 -25z m3686 8
c-3 -8 -6 -5 -6 6 -1 11 2 17 5 13 3 -3 4 -12 1 -19z m-3997 -9 c0 -6 -4 -7
-10 -4 -5 3 -10 11 -10 16 0 6 5 7 10 4 6 -3 10 -11 10 -16z m-290 -20 c0 -6
-4 -7 -10 -4 -5 3 -10 11 -10 16 0 6 5 7 10 4 6 -3 10 -11 10 -16z m47 -11
c-3 -7 -5 -2 -5 12 0 14 2 19 5 13 2 -7 2 -19 0 -25z m583 -16 c0 -15 -2 -15
-10 -2 -13 20 -13 33 0 25 6 -3 10 -14 10 -23z m120 8 c0 -5 -4 -10 -10 -10
-5 0 -10 5 -10 10 0 6 5 10 10 10 6 0 10 -4 10 -10z m3580 -10 c0 -5 -4 -10
-10 -10 -5 0 -10 5 -10 10 0 6 5 10 10 10 6 0 10 -4 10 -10z m-3757 -31 c-9
-9 -12 -7 -10 9 1 14 5 18 11 12 7 -7 6 -14 -1 -21z m-503 6 c0 -12 -19 -12
-23 0 -4 9 -1 12 9 8 7 -3 14 -7 14 -8z m557 -21 c-9 -9 -27 6 -27 22 0 13 2
13 16 -1 9 -9 14 -18 11 -21z m-650 -66 c-2 -13 -4 -5 -4 17 -1 22 1 32 4 23
2 -10 2 -28 0 -40z m550 10 c-3 -8 -6 -5 -6 6 -1 11 2 17 5 13 3 -3 4 -12 1
-19z m-580 -20 c-3 -8 -6 -5 -6 6 -1 11 2 17 5 13 3 -3 4 -12 1 -19z m73 -12
c-7 -7 -13 -7 -20 0 -6 6 -3 10 10 10 13 0 16 -4 10 -10z m4463 -38 c5 -17 3
-16 -17 4 -12 13 -31 29 -42 35 -10 7 -2 5 18 -4 20 -9 39 -25 41 -35z m-3993
-20 c0 -19 -16 -5 -17 14 -2 18 0 20 7 8 5 -8 10 -18 10 -22z m-469 -19 c-9
-23 -10 -22 -10 11 -1 23 2 31 9 24 7 -7 7 -19 1 -35z m-27 6 c-4 -8 -8 -15
-10 -15 -2 0 -4 7 -4 15 0 8 4 15 10 15 5 0 7 -7 4 -15z m334 -5 c7 -11 9 -20
4 -20 -4 0 -13 9 -20 20 -7 11 -9 20 -4 20 4 0 13 -9 20 -20z m-488 -6 c0 -8
-19 -13 -24 -6 -3 5 1 9 9 9 8 0 15 -2 15 -3z m190 -49 c0 -8 -2 -15 -4 -15
-2 0 -6 7 -10 15 -3 8 -1 15 4 15 6 0 10 -7 10 -15z m-317 -10 c-3 -9 -8 -14
-10 -11 -3 3 -2 9 2 15 9 16 15 13 8 -4z m453 -20 c-9 -9 -16 -13 -16 -8 0 12
22 34 28 28 2 -2 -3 -11 -12 -20z m-66 -5 c0 -5 -5 -10 -11 -10 -5 0 -7 5 -4
10 3 6 8 10 11 10 2 0 4 -4 4 -10z m97 -47 c-3 -10 -5 -4 -5 12 0 17 2 24 5
18 2 -7 2 -21 0 -30z m4340 15 c-3 -8 -6 -5 -6 6 -1 11 2 17 5 13 3 -3 4 -12
1 -19z m-4583 -13 c3 -8 1 -15 -3 -15 -5 0 -11 7 -15 15 -3 8 -1 15 3 15 5 0
11 -7 15 -15z m4613 -27 c-3 -8 -6 -5 -6 6 -1 11 2 17 5 13 3 -3 4 -12 1 -19z
m-2522 -103 c-3 -51 -15 -56 -15 -7 0 23 4 42 8 42 5 0 8 -16 7 -35z m-9 -117
c-3 -35 -5 -66 -5 -70 -1 -5 -9 -8 -18 -8 -13 0 -14 3 -5 12 7 7 12 35 12 63
0 45 5 65 16 65 2 0 2 -28 0 -62z m-578 -8 c-1 -30 -13 -40 -21 -17 -3 10 12
47 20 47 1 0 1 -13 1 -30z m-1460 -40 c0 -9 -3 -7 -8 5 -5 11 -8 29 -8 40 0
16 2 15 8 -5 4 -14 8 -32 8 -40z m-81 -362 c-3 -7 -5 -2 -5 12 0 14 2 19 5 13
2 -7 2 -19 0 -25z m4590 -115 c-3 -10 -5 -2 -5 17 0 19 2 27 5 18 2 -10 2 -26
0 -35z m-30 -75 c-3 -8 -6 -5 -6 6 -1 11 2 17 5 13 3 -3 4 -12 1 -19z m97
-113 c3 -8 1 -15 -4 -15 -6 0 -10 7 -10 15 0 8 2 15 4 15 2 0 6 -7 10 -15z
m-159 -275 c3 -5 1 -10 -4 -10 -6 0 -11 5 -11 10 0 6 2 10 4 10 3 0 8 -4 11
-10z m-405 -100 c0 -5 -5 -10 -11 -10 -5 0 -7 5 -4 10 3 6 8 10 11 10 2 0 4
-4 4 -10z m40 -40 c0 -5 -5 -10 -11 -10 -5 0 -7 5 -4 10 3 6 8 10 11 10 2 0 4
-4 4 -10z m523 -345 c4 -8 2 -17 -3 -20 -6 -4 -10 3 -10 14 0 25 6 27 13 6z
m-1059 -231 c3 -8 2 -12 -4 -9 -6 3 -10 10 -10 16 0 14 7 11 14 -7z m-3794
-154 c0 -5 -2 -10 -4 -10 -3 0 -8 5 -11 10 -3 6 -1 10 4 10 6 0 11 -4 11 -10z
m-25 -18 c-3 -3 -11 0 -18 7 -9 10 -8 11 6 5 10 -3 15 -9 12 -12z m0 -62 c3
-5 -1 -10 -10 -10 -9 0 -13 5 -10 10 3 6 8 10 10 10 2 0 7 -4 10 -10z m4795
-40 c0 -5 -2 -10 -4 -10 -3 0 -8 5 -11 10 -3 6 -1 10 4 10 6 0 11 -4 11 -10z
m-60 -10 c0 -5 -2 -10 -4 -10 -3 0 -8 5 -11 10 -3 6 -1 10 4 10 6 0 11 -4 11
-10z m38 -15 c-3 -3 -9 2 -12 12 -6 14 -5 15 5 6 7 -7 10 -15 7 -18z m-1251 9
c-3 -3 -12 -4 -19 -1 -8 3 -5 6 6 6 11 1 17 -2 13 -5z m1328 -4 c3 -5 2 -10
-4 -10 -5 0 -13 5 -16 10 -3 6 -2 10 4 10 5 0 13 -4 16 -10z m-4695 -60 c0 -5
-5 -10 -11 -10 -5 0 -7 5 -4 10 3 6 8 10 11 10 2 0 4 -4 4 -10z m290 -10 c0
-5 -4 -10 -9 -10 -6 0 -13 5 -16 10 -3 6 1 10 9 10 9 0 16 -4 16 -10z m600 6
c0 -3 -4 -8 -10 -11 -5 -3 -10 -1 -10 4 0 6 5 11 10 11 6 0 10 -2 10 -4z
m2270 -16 c0 -5 -4 -10 -10 -10 -5 0 -10 5 -10 10 0 6 5 10 10 10 6 0 10 -4
10 -10z m-290 -10 c0 -5 -2 -10 -4 -10 -3 0 -8 5 -11 10 -3 6 -1 10 4 10 6 0
11 -4 11 -10z m-940 -14 c0 -3 -4 -8 -10 -11 -5 -3 -10 -1 -10 4 0 6 5 11 10
11 6 0 10 -2 10 -4z m-2055 -26 c3 -5 -3 -10 -15 -10 -12 0 -18 5 -15 10 3 6
10 10 15 10 5 0 12 -4 15 -10z m295 -6 c0 -2 -7 -4 -15 -4 -8 0 -15 4 -15 10
0 5 7 7 15 4 8 -4 15 -8 15 -10z m3750 6 c0 -5 -5 -10 -11 -10 -5 0 -7 5 -4
10 3 6 8 10 11 10 2 0 4 -4 4 -10z m785 0 c3 -5 -1 -10 -10 -10 -9 0 -13 5
-10 10 3 6 8 10 10 10 2 0 7 -4 10 -10z"/>
<path d="M4320 5642 c0 -25 16 -37 23 -18 3 8 -1 20 -9 26 -11 10 -14 9 -14
-8z"/>
<path d="M1796 4645 c-6 -6 -17 -10 -25 -7 -8 3 -11 0 -7 -7 4 -6 14 -11 22
-11 8 0 14 -7 14 -16 0 -9 -5 -12 -12 -8 -7 4 -8 3 -4 -4 5 -8 -1 -12 -16 -13
-13 0 -17 -3 -10 -6 10 -4 9 -10 -5 -27 -10 -11 -4 -8 13 7 27 24 41 28 95 30
44 1 76 -4 103 -16 33 -16 38 -16 33 -3 -5 11 0 16 13 16 11 0 20 5 20 11 0 5
-4 8 -9 5 -5 -3 -8 2 -7 11 3 37 -186 70 -218 38z"/>
<path d="M2555 4651 c-6 -6 -30 -13 -54 -16 -23 -3 -47 -7 -51 -10 -5 -3 -10
0 -12 6 -3 8 -8 8 -19 -2 -22 -21 -39 -22 -60 -3 -16 15 -17 15 -12 -5 4 -18
1 -21 -24 -21 -16 0 -35 6 -42 13 -11 10 -11 8 -2 -10 6 -13 16 -23 21 -23 6
0 10 -5 10 -11 0 -5 -4 -7 -10 -4 -5 3 -20 8 -32 10 -16 4 -19 2 -10 -7 16
-16 15 -41 -1 -35 -15 6 -32 -12 -33 -35 -2 -22 12 -23 20 -2 5 13 9 14 21 4
13 -11 14 -10 9 4 -3 9 -1 16 6 16 6 0 8 -4 5 -10 -3 -5 0 -10 7 -10 10 0 9
-3 -2 -10 -8 -5 -11 -12 -8 -15 12 -13 29 7 23 26 -5 14 -2 19 14 19 11 0 32
11 47 25 29 27 81 45 132 45 36 0 92 -25 92 -40 0 -5 11 -12 25 -16 16 -4 25
-13 25 -26 0 -10 4 -17 9 -14 5 3 11 0 14 -7 3 -8 -3 -13 -14 -13 -11 0 -19 4
-19 9 0 4 -4 6 -9 3 -5 -4 -11 -1 -13 5 -2 7 -27 12 -56 13 -28 1 -52 5 -52 9
0 5 -6 5 -12 0 -7 -4 -17 -8 -23 -8 -31 -4 -74 -29 -84 -52 -6 -14 -9 -28 -7
-31 3 -2 11 7 17 21 12 26 21 32 70 47 23 7 25 5 25 -28 0 -58 62 -92 107 -58
9 7 17 18 17 25 0 9 5 9 21 1 26 -15 13 -33 -49 -64 -40 -20 -42 -24 -23 -29
12 -3 27 0 34 7 6 7 18 11 27 9 9 -2 27 5 40 17 14 12 26 17 28 11 4 -13 22
-5 22 10 0 5 -7 9 -15 9 -8 0 -15 6 -15 14 0 9 7 12 20 9 14 -4 20 0 20 13 0
9 3 14 6 11 8 -8 64 24 64 36 0 5 9 7 21 4 15 -4 19 -2 15 9 -3 8 -1 14 5 14
6 0 9 9 7 20 -2 12 -7 20 -13 20 -5 -1 -9 -9 -8 -18 2 -11 -2 -9 -9 6 -9 18
-8 26 8 44 l19 22 -24 -16 c-13 -9 -30 -14 -37 -11 -9 3 -14 -2 -14 -16 0 -12
5 -21 10 -21 18 0 11 -29 -7 -29 -41 -1 -53 -5 -52 -15 6 -48 -4 -48 -36 3
-19 30 -32 59 -28 64 3 6 1 7 -5 3 -7 -4 -12 -1 -12 8 0 9 5 16 11 16 6 0 3 7
-5 16 -9 8 -16 20 -16 26 0 5 -7 8 -15 4 -10 -3 -15 1 -15 12 0 13 -2 14 -9 3
-6 -9 -10 -10 -12 -2 -3 8 -8 8 -14 2z m-250 -111 c3 -5 2 -10 -4 -10 -5 0
-13 5 -16 10 -3 6 -2 10 4 10 5 0 13 -4 16 -10z m235 -46 c0 -7 -27 -34 -33
-34 -3 0 -3 9 0 20 5 17 33 30 33 14z m210 -8 c0 -8 -7 -16 -15 -20 -13 -4
-14 -2 -5 14 13 23 20 26 20 6z m30 0 c0 -3 -4 -8 -10 -11 -5 -3 -10 -1 -10 4
0 6 5 11 10 11 6 0 10 -2 10 -4z"/>
<path d="M2640 4630 c-12 -7 -12 -10 3 -16 21 -8 29 -3 19 13 -5 8 -13 9 -22
3z"/>
<path d="M2771 4624 c-11 -13 -11 -18 -1 -27 10 -9 11 -9 6 1 -4 6 -3 12 3 12
5 0 12 -6 15 -12 4 -7 4 -3 2 10 -4 22 8 31 17 12 3 -6 4 -5 3 2 -4 19 -29 20
-45 2z"/>
<path d="M2840 4632 c0 -5 7 -9 15 -9 8 0 12 4 9 9 -3 4 -9 8 -15 8 -5 0 -9
-4 -9 -8z"/>
<path d="M2680 4616 c0 -16 18 -31 27 -22 3 3 -2 12 -11 21 -14 14 -16 14 -16
1z"/>
<path d="M2711 4564 c0 -11 3 -14 6 -6 3 7 2 16 -1 19 -3 4 -6 -2 -5 -13z"/>
<path d="M2015 4550 c-11 -17 5 -32 21 -19 7 6 11 15 8 20 -7 12 -21 11 -29
-1z"/>
<path d="M2046 4514 c-4 -9 -2 -13 5 -8 8 4 10 -8 8 -40 -5 -53 7 -62 16 -12
11 54 -13 102 -29 60z"/>
<path d="M1823 4513 c-23 -3 -41 -15 -59 -39 -15 -19 -33 -34 -42 -34 -22 0
-3 -16 28 -24 14 -3 19 -3 12 0 -18 8 16 63 46 75 38 15 51 11 45 -12 -4 -14
1 -25 16 -35 12 -9 19 -20 16 -25 -6 -9 23 -14 55 -9 21 2 40 29 40 56 0 35
-76 58 -157 47z m97 -23 c0 -5 -4 -10 -10 -10 -5 0 -10 5 -10 10 0 6 5 10 10
10 6 0 10 -4 10 -10z"/>
<path d="M2005 4490 c-3 -5 -1 -10 4 -10 6 0 11 5 11 10 0 6 -2 10 -4 10 -3 0
-8 -4 -11 -10z"/>
<path d="M2253 4475 c3 -11 9 -32 13 -47 3 -16 10 -25 15 -22 5 3 7 10 3 15
-3 6 2 17 12 24 14 11 15 14 5 15 -8 0 -23 8 -34 18 -19 16 -19 16 -14 -3z"/>
<path d="M2225 4460 c-3 -5 -1 -10 4 -10 6 0 11 5 11 10 0 6 -2 10 -4 10 -3 0
-8 -4 -11 -10z"/>
<path d="M2326 4451 c-4 -6 -3 -11 3 -11 6 0 8 -8 5 -17 -5 -16 -4 -16 6 0 8
13 9 22 2 29 -6 6 -12 6 -16 -1z"/>
<path d="M2230 4430 c0 -5 5 -10 11 -10 5 0 7 5 4 10 -3 6 -8 10 -11 10 -2 0
-4 -4 -4 -10z"/>
<path d="M2255 4361 c-3 -5 -1 -12 5 -16 5 -3 10 1 10 9 0 18 -6 21 -15 7z"/>
<path d="M2220 4330 c0 -5 5 -10 11 -10 5 0 7 5 4 10 -3 6 -8 10 -11 10 -2 0
-4 -4 -4 -10z"/>
<path d="M2970 4039 c0 -5 5 -7 10 -4 6 3 10 8 10 11 0 2 -4 4 -10 4 -5 0 -10
-5 -10 -11z"/>
<path d="M2245 4019 c-4 -6 -5 -12 -2 -15 2 -3 7 2 10 11 7 17 1 20 -8 4z"/>
<path d="M2037 3939 c7 -7 15 -10 18 -7 3 3 -2 9 -12 12 -14 6 -15 5 -6 -5z"/>
<path d="M2953 3926 c4 -10 7 -22 7 -27 0 -5 5 -9 11 -9 15 0 7 43 -10 48 -10
3 -12 0 -8 -12z"/>
<path d="M2262 3493 c2 -10 11 -19 21 -21 16 -3 17 -1 5 17 -16 25 -31 27 -26
4z"/>
<path d="M2410 3465 c-10 -12 -10 -15 4 -15 9 0 16 7 16 15 0 8 -2 15 -4 15
-2 0 -9 -7 -16 -15z"/>
<path d="M2484 3455 c-18 -14 -18 -14 4 -8 12 3 22 9 22 14 0 12 -3 11 -26 -6z"/>
<path d="M2440 3405 c-7 -9 -11 -18 -8 -20 3 -3 11 1 18 10 7 9 11 18 8 20 -3
3 -11 -1 -18 -10z"/>
<path d="M2344 3382 c3 -5 0 -13 -6 -15 -9 -4 -10 -6 -1 -6 17 -1 25 16 12 25
-7 4 -9 3 -5 -4z"/>
<path d="M2046 3368 c3 -4 11 -5 19 -1 21 7 19 12 -4 10 -11 0 -18 -5 -15 -9z"/>
<path d="M2234 3336 c-20 -11 -22 -36 -3 -36 6 0 7 5 4 10 -3 6 -2 10 3 10 6
0 12 7 16 15 3 8 4 15 3 14 -1 -1 -11 -6 -23 -13z"/>
<path d="M2257 3311 c-3 -14 0 -19 13 -18 11 1 15 7 12 19 -6 24 -18 23 -25
-1z"/>
<path d="M4501 5414 c0 -11 3 -14 6 -6 3 7 2 16 -1 19 -3 4 -6 -2 -5 -13z"/>
<path d="M4460 5386 c0 -13 -6 -26 -12 -29 -7 -2 -1 -4 14 -3 19 1 24 4 16 13
-5 7 -7 17 -4 22 4 5 2 12 -4 16 -6 4 -10 -4 -10 -19z"/>
<path d="M4520 5309 c0 -5 -7 -9 -15 -9 -8 0 -15 -5 -15 -10 0 -7 7 -7 20 0
17 9 22 7 30 -12 10 -21 10 -21 5 5 -6 31 11 38 18 7 4 -17 4 -16 3 2 -1 16
-8 23 -23 24 -13 1 -23 -3 -23 -7z"/>
<path d="M4500 5266 c0 -2 7 -7 16 -10 8 -3 12 -2 9 4 -6 10 -25 14 -25 6z"/>
<path d="M4555 5241 c-3 -5 -1 -12 5 -16 5 -3 10 1 10 9 0 18 -6 21 -15 7z"/>
<path d="M4566 5194 c-3 -8 -10 -12 -16 -9 -5 3 -10 1 -10 -4 0 -6 12 -11 28
-10 15 0 22 3 15 5 -7 3 -9 12 -6 20 3 8 3 14 0 14 -3 0 -8 -7 -11 -16z"/>
<path d="M3311 4144 c0 -11 3 -14 6 -6 3 7 2 16 -1 19 -3 4 -6 -2 -5 -13z"/>
<path d="M3367 3596 c-3 -8 1 -20 9 -27 8 -7 13 -18 10 -26 -3 -7 -1 -13 4
-13 6 0 10 -6 10 -14 0 -23 28 -27 35 -5 5 16 9 18 21 8 26 -21 28 0 4 33 -17
23 -19 30 -7 25 9 -3 19 -2 22 3 4 6 -5 10 -18 10 -14 0 -27 -7 -31 -15 -3 -8
0 -15 6 -15 7 0 6 -5 -2 -15 -20 -24 -29 -17 -20 15 5 18 5 30 -1 30 -5 0 -9
-4 -9 -10 0 -5 -4 -10 -10 -10 -18 0 -10 17 13 28 22 11 22 11 -4 11 -15 1
-29 -5 -32 -13z"/>
<path d="M3490 3588 c0 -19 2 -20 10 -8 13 19 13 30 0 30 -5 0 -10 -10 -10
-22z"/>
<path d="M3350 3561 c0 -6 4 -13 10 -16 6 -3 7 1 4 9 -7 18 -14 21 -14 7z"/>
<path d="M3540 3501 c0 -5 5 -13 10 -16 6 -3 10 -2 10 4 0 5 -4 13 -10 16 -5
3 -10 2 -10 -4z"/>
<path d="M3360 3489 c0 -5 5 -7 10 -4 6 3 10 8 10 11 0 2 -4 4 -10 4 -5 0 -10
-5 -10 -11z"/>
<path d="M3390 3465 c0 -8 2 -15 4 -15 2 0 6 7 10 15 3 8 1 15 -4 15 -6 0 -10
-7 -10 -15z"/>
<path d="M2172 2720 c0 -14 2 -19 5 -12 2 6 2 18 0 25 -3 6 -5 1 -5 -13z"/>
<path d="M0 6299 c0 -5 5 -7 10 -4 5 3 10 8 10 11 0 2 -4 4 -10 4 -5 0 -10 -5
-10 -11z"/>
<path d="M0 6260 c0 -5 5 -10 11 -10 5 0 7 5 4 10 -3 6 -8 10 -11 10 -2 0 -4
-4 -4 -10z"/>
</g>
</svg>
